#N canvas 719 172 712 332 10;
#X obj 110 64 timelab_pd~;
#X obj 119 162 output~;
#X obj 138 20 noise~;
#X msg 30 19 tl_list_ctls;
#X obj 221 20 tl_ctl_lin_pd 0 50 10;
#X obj 221 93 s tl_ctls;
#X obj 384 92 s tl_ctls;
#X obj 384 19 tl_ctl_lin_pd 1 40 10;
#X obj 217 200 s tl_ctls;
#X obj 390 201 s tl_ctls;
#X obj 8 60 r tl_ctls;
#X obj 217 127 tl_ctl_lin_pd 2 50 0.01;
#X obj 390 128 tl_ctl_lin_pd 3 50 0.01;
#X msg 9 115 load_tl ../moog_filter.tl;
#X connect 0 0 1 0;
#X connect 0 1 1 1;
#X connect 2 0 0 0;
#X connect 2 0 0 1;
#X connect 3 0 0 0;
#X connect 4 0 5 0;
#X connect 7 0 6 0;
#X connect 10 0 0 0;
#X connect 11 0 8 0;
#X connect 12 0 9 0;
#X connect 13 0 0 0;
