#N canvas 2098 51 1253 450 10;
#X msg 93 -46 connect localhost 3001;
#X obj 145 17 r ctl_data;
#X floatatom 122 70 5 0 0 0 - - -, f 5;
#X obj 122 49 netsend 1;
#X obj 502 46 s ctl_data;
#X obj 670 45 s ctl_data;
#X msg 127 -12 disconnect;
#X obj 231 68 print;
#X obj 232 36 spigot;
#X obj 276 0 tgl 15 0 empty empty empty 17 7 0 10 -262144 -1 -1 0 1
;
#X obj 170 120 s ctl_reset;
#X obj 171 99 bng 15 250 50 0 empty empty empty 17 7 0 10 -262144 -1
-1;
#X obj 168 164 s toggle_reset;
#X msg 112 140 1;
#X msg 146 138 0;
#X obj 454 188 s ctl_data;
#X obj 860 46 s ctl_data;
#X obj 860 -19 ctl_struct_abs 2 70.7 0.01;
#X text 502 -39 sig_freq;
#X obj 502 -19 ctl_struct_abs 0 10 10;
#X text 670 -40 sig_level;
#X obj 670 -20 ctl_struct_abs 1 70.7 0.01;
#X text 860 -37 out_level;
#X text 452 104 fb_in;
#X obj 644 178 s ctl_data;
#X text 642 94 fb_out;
#X obj 828 169 s ctl_data;
#X text 826 85 clip_gain;
#X obj 645 113 ctl_struct_abs 4 0 1;
#X obj 454 123 ctl_struct_abs 3 0 1;
#X obj 831 104 ctl_struct_abs 4 1 1;
#X connect 0 0 3 0;
#X connect 1 0 3 0;
#X connect 1 0 8 0;
#X connect 3 0 2 0;
#X connect 6 0 3 0;
#X connect 8 0 7 0;
#X connect 9 0 8 1;
#X connect 11 0 10 0;
#X connect 11 0 14 0;
#X connect 13 0 12 0;
#X connect 14 0 12 0;
#X connect 17 0 16 0;
#X connect 19 0 4 0;
#X connect 21 0 5 0;
#X connect 28 0 24 0;
#X connect 29 0 15 0;
#X connect 30 0 26 0;
