#N canvas 1938 95 627 445 10;
#X obj 482 21 r ctl_reset;
#X obj 119 138 bng 15 250 50 0 empty empty empty 17 7 0 10 -262144
-1 -1;
#X obj 114 196 \$1;
#X obj 146 198 1;
#X obj 122 171 t b b;
#X obj 114 218 pack f f;
#X obj 100 274 outlet;
#X msg 108 252 send \$1 \$2;
#X connect 0 0 1 0;
#X connect 1 0 4 0;
#X connect 2 0 5 0;
#X connect 3 0 5 1;
#X connect 4 0 2 0;
#X connect 4 1 3 0;
#X connect 5 0 7 0;
#X connect 7 0 6 0;
#X coords 0 -1 1 1 100 60 1 100 100;