#N canvas 1997 126 450 300 10;
#X obj 102 123 tgl 15 0 empty empty empty 17 7 0 10 -262144 -1 -1 0
1;
#X obj 51 195 pack f f;
#X msg 50 220 send \$1 \$2;
#X obj 50 241 outlet;
#X obj 52 156 \$1;
#X obj 102 143 t b f;
#X obj 93 40 r toggle_reset;
#X connect 0 0 5 0;
#X connect 1 0 2 0;
#X connect 2 0 3 0;
#X connect 4 0 1 0;
#X connect 5 0 4 0;
#X connect 5 1 1 1;
#X connect 6 0 0 0;
#X coords 0 -1 1 1 85 40 1 100 100;