#N canvas 1934 91 627 445 10;
#X obj 276 208 t b f;
#X obj 264 251 pack f f;
#X obj 288 63 \$2;
#X obj 316 31 loadbang;
#X obj 263 297 outlet;
#X obj 115 44 inlet;
#X floatatom 106 143 7 0 0 0 - - -, f 7;
#X floatatom 180 143 7 0 0 0 - - -, f 7;
#X obj 286 116 *;
#X obj 317 70 \$3;
#X obj 264 230 f;
#X obj 241 45 \$1;
#X obj 234 22 t b b;
#X text 178 125 out;
#X text 106 125 in;
#X floatatom 358 128 5 0 0 0 - - -, f 5;
#X obj 287 94 t f b;
#X obj 482 21 r ctl_reset;
#X obj 282 183 line;
#X msg 287 148 \$1 40;
#X msg 264 273 send \$1 \$2;
#X connect 0 0 10 0;
#X connect 0 1 1 1;
#X connect 1 0 20 0;
#X connect 2 0 6 0;
#X connect 3 0 2 0;
#X connect 3 0 9 0;
#X connect 3 0 12 0;
#X connect 5 0 6 0;
#X connect 6 0 16 0;
#X connect 8 0 7 0;
#X connect 8 0 15 0;
#X connect 8 0 19 0;
#X connect 9 0 8 1;
#X connect 10 0 1 0;
#X connect 11 0 10 0;
#X connect 12 1 11 0;
#X connect 16 0 8 0;
#X connect 16 1 9 0;
#X connect 17 0 11 0;
#X connect 17 0 2 0;
#X connect 17 0 9 0;
#X connect 18 0 0 0;
#X connect 19 0 18 0;
#X connect 20 0 4 0;
#X coords 0 -1 1 1 150 60 1 100 100;
