#N canvas 1926 311 1273 471 10;
#X msg -109 -184 connect localhost 3001;
#X obj -57 -121 r ctl_data;
#X floatatom -80 -68 5 0 0 0 - - -, f 5;
#X obj -80 -89 netsend 1;
#X obj 286 -128 s ctl_data;
#X msg -75 -150 disconnect;
#X obj 29 -70 print;
#X obj 30 -102 spigot;
#X obj 74 -138 tgl 15 0 empty empty empty 17 7 0 10 -262144 -1 -1 0
1;
#X obj -91 41 s ctl_data;
#X obj 86 -157 s ctl_data;
#X obj 107 42 s ctl_data;
#X obj 164 -118 s ctl_reset;
#X obj 165 -139 bng 15 250 50 0 empty empty empty 17 7 0 10 -262144
-1 -1;
#X obj 162 -74 s toggle_reset;
#X msg 106 -98 1;
#X msg 140 -100 0;
#X obj 104 -29 ctl_struct_abs 1 70.7 0.01;
#X obj 83 -218 ctl_bang_abs 2;
#X text 286 -213 omega0;
#X text -87 -40 amp0;
#X obj 438 -128 s ctl_data;
#X obj 1026 -133 s ctl_data;
#X obj 605 -125 s ctl_data;
#X obj 813 -137 s ctl_data;
#X text 438 -213 alpha0;
#X text 641 -211 beta0;
#X text 817 -221 delta;
#X text 1027 -219 gamma;
#X obj 448 -201 ctl_struct_abs 4 0 1;
#X obj 822 -201 ctl_struct_abs 6 0 0.01;
#X obj 1029 -199 ctl_struct_abs 7 0 1;
#X obj 322 10 s ctl_data;
#X text 322 -75 tri_freq;
#X obj 321 -56 ctl_struct_abs 8 30 10;
#X obj 491 17 s ctl_data;
#X text 491 -68 filt_freq;
#X obj 490 -49 ctl_struct_abs 9 30 10;
#X obj 659 10 s ctl_data;
#X text 659 -75 res;
#X obj 658 -56 ctl_struct_abs 10 100 0.01;
#X obj 238 105 s ctl_data;
#X obj 418 102 s ctl_data;
#X obj 14 202 s ctl_data;
#X text 11 117 sqr_flyback;
#X obj 245 200 s ctl_data;
#X text 244 114 curl;
#X obj 453 199 s ctl_data;
#X text 454 113 tri_thresh;
#X obj 659 189 s ctl_data;
#X text 660 103 duff_state;
#X obj 12 135 ctl_struct_abs 15 720 100;
#X obj 244 134 ctl_struct_abs 16 50 0.1;
#X obj 452 133 ctl_struct_abs 17 90 0.01;
#X obj 640 121 ctl_struct_abs 18 -50 0.01;
#X obj 854 3 s ctl_data;
#X text 854 -82 tri_f_depth;
#X obj 865 112 s ctl_data;
#X text 865 27 filt_f_depth;
#X obj 864 46 ctl_struct_abs 12 0 1;
#X obj 634 -189 ctl_struct_abs 5 0 1;
#X text 237 19 fba;
#X text 418 16 fbb;
#X obj -91 -26 ctl_struct_abs 0 0 0.01;
#X obj 285 -194 ctl_struct_abs 3 1 1;
#X obj 417 36 ctl_struct_abs 14 0 1;
#X obj 235 39 ctl_struct_abs 13 0 1;
#X obj 854 -62 ctl_struct_abs 11 0 0.01;
#X connect 0 0 3 0;
#X connect 1 0 3 0;
#X connect 1 0 7 0;
#X connect 3 0 2 0;
#X connect 5 0 3 0;
#X connect 7 0 6 0;
#X connect 8 0 7 1;
#X connect 13 0 12 0;
#X connect 13 0 16 0;
#X connect 15 0 14 0;
#X connect 16 0 14 0;
#X connect 17 0 11 0;
#X connect 18 0 10 0;
#X connect 29 0 21 0;
#X connect 30 0 24 0;
#X connect 31 0 22 0;
#X connect 34 0 32 0;
#X connect 37 0 35 0;
#X connect 40 0 38 0;
#X connect 51 0 43 0;
#X connect 52 0 45 0;
#X connect 53 0 47 0;
#X connect 54 0 49 0;
#X connect 59 0 57 0;
#X connect 60 0 23 0;
#X connect 63 0 9 0;
#X connect 64 0 4 0;
#X connect 65 0 42 0;
#X connect 66 0 41 0;
#X connect 67 0 55 0;
