#N canvas 1921 98 1273 858 10;
#X msg -109 -184 connect localhost 3001;
#X obj -57 -121 r ctl_data;
#X floatatom -80 -68 5 0 0 0 - - -, f 5;
#X obj -80 -89 netsend 1;
#X obj 442 -94 s ctl_data;
#X obj 610 -95 s ctl_data;
#X obj 774 -95 s ctl_data;
#X msg -75 -150 disconnect;
#X obj 29 -70 print;
#X obj 30 -102 spigot;
#X obj 74 -138 tgl 15 0 empty empty empty 17 7 0 10 -262144 -1 -1 0
1;
#X obj 439 8 s ctl_data;
#X obj -91 41 s ctl_data;
#X obj 276 -76 s ctl_data;
#X obj 107 42 s ctl_data;
#X obj 611 8 s ctl_data;
#X obj 767 5 s ctl_data;
#X obj 473 125 s ctl_data;
#X obj 645 125 s ctl_data;
#X obj 801 122 s ctl_data;
#X text -3 80 sync matrix;
#X obj -71 178 s ctl_data;
#X obj 57 178 s ctl_data;
#X obj -70 243 s ctl_data;
#X obj 58 243 s ctl_data;
#X obj -70 308 s ctl_data;
#X obj 58 308 s ctl_data;
#X obj 188 178 s ctl_data;
#X obj 189 243 s ctl_data;
#X obj 189 308 s ctl_data;
#X text 65 98 masters;
#X text -140 182 slaves;
#X text -132 149 osc_0;
#X text 85 118 osc_1;
#X text 212 117 osc_2;
#X text -39 118 osc_0;
#X text -130 207 osc_1;
#X text -129 270 osc_2;
#X obj 164 -118 s ctl_reset;
#X obj 165 -139 bng 15 250 50 0 empty empty empty 17 7 0 10 -262144
-1 -1;
#X obj 162 -74 s toggle_reset;
#X msg 106 -98 1;
#X msg 140 -100 0;
#X obj 468 219 s ctl_data;
#X obj 640 219 s ctl_data;
#X obj 796 216 s ctl_data;
#X obj 473 314 s ctl_data;
#X obj 645 314 s ctl_data;
#X obj 801 311 s ctl_data;
#X text 680 43 osc_1;
#X text 807 42 osc_2;
#X text 528 36 osc_0;
#X text 397 107 osc_0;
#X text 399 165 osc_1;
#X text 400 228 osc_2;
#X obj -91 -26 ctl_struct_abs 0 70.7 0.01;
#X obj 104 -29 ctl_struct_abs 1 70.7 0.01;
#X obj 273 -137 ctl_bang_abs 2;
#X text 442 -179 omega0;
#X text 610 -180 omega1;
#X text 774 -181 omega2;
#X text -87 -40 amp0;
#X text 443 -76 eps0;
#X text 615 -76 eps1;
#X text 767 -80 eps2;
#X text 655 22 feedback fm matrix;
#X obj 477 436 s ctl_data;
#X obj 649 436 s ctl_data;
#X obj 839 433 s ctl_data;
#X obj 472 530 s ctl_data;
#X obj 644 530 s ctl_data;
#X obj 838 527 s ctl_data;
#X obj 477 625 s ctl_data;
#X obj 649 625 s ctl_data;
#X obj 843 622 s ctl_data;
#X text 684 354 osc_1;
#X text 845 353 osc_2;
#X text 532 347 osc_0;
#X text 401 418 osc_0;
#X text 403 476 osc_1;
#X text 404 539 osc_2;
#X text 659 333 feedback gamma matrix;
#X obj -72 132 ctl_toggle_abs 3;
#X obj 60 134 ctl_toggle_abs 4;
#X obj 187 132 ctl_toggle_abs 5;
#X obj -71 197 ctl_toggle_abs 6;
#X obj 57 197 ctl_toggle_abs 7;
#X obj 188 197 ctl_toggle_abs 8;
#X obj -70 263 ctl_toggle_abs 9;
#X obj 59 263 ctl_toggle_abs 10;
#X obj 188 263 ctl_toggle_abs 11;
#X obj -134 421 s ctl_data;
#X obj 64 421 s ctl_data;
#X obj 270 414 s ctl_data;
#X obj -169 525 s ctl_data;
#X obj 32 525 s ctl_data;
#X obj 216 519 s ctl_data;
#X text 39 439 eps1;
#X text 216 434 eps2;
#X obj -167 627 s ctl_data;
#X obj 34 627 s ctl_data;
#X obj 247 621 s ctl_data;
#X text -134 336 alpha0;
#X text 65 335 alpha1;
#X text 270 328 alpha2;
#X text -133 439 beta0;
#X obj 613 -161 ctl_struct_abs 13 1 10;
#X obj 774 -160 ctl_struct_abs 14 1 10;
#X text -163 543 delta;
#X text 38 543 delta1;
#X text 247 536 delta2;
#X obj 441 -160 ctl_struct_abs 12 1 10;
#X obj 474 60 ctl_struct_abs 15 0 10;
#X obj 645 60 ctl_struct_abs 16 0 10;
#X obj 804 54 ctl_struct_abs 17 0 10;
#X obj 467 153 ctl_struct_abs 18 0 10;
#X obj 640 154 ctl_struct_abs 19 0 10;
#X obj 800 149 ctl_struct_abs 20 0 10;
#X obj 474 249 ctl_struct_abs 21 0 10;
#X obj 645 248 ctl_struct_abs 22 0 10;
#X obj 807 243 ctl_struct_abs 23 0 10;
#X obj -135 353 ctl_struct_abs 33 100 0.01;
#X obj 67 355 ctl_struct_abs 34 100 0.01;
#X obj 267 349 ctl_struct_abs 35 100 0.01;
#X obj -136 458 ctl_struct_abs 36 0 0.01;
#X obj 33 455 ctl_struct_abs 37 0 0.01;
#X obj 222 452 ctl_struct_abs 38 0 0.01;
#X obj -166 562 ctl_struct_abs 39 0 0.01;
#X obj 32 559 ctl_struct_abs 40 0 0.01;
#X obj 252 553 ctl_struct_abs 41 0 0.01;
#X obj 439 -56 ctl_struct_abs 42 0 1;
#X obj 609 -60 ctl_struct_abs 43 0 1;
#X obj 773 -62 ctl_struct_abs 44 0 1;
#X obj 477 370 ctl_struct_abs 24 0 10;
#X obj 650 370 ctl_struct_abs 25 0 10;
#X obj 839 367 ctl_struct_abs 26 0 10;
#X obj 468 464 ctl_struct_abs 27 0 10;
#X obj 645 463 ctl_struct_abs 28 0 10;
#X obj 841 462 ctl_struct_abs 29 0 10;
#X obj 477 559 ctl_struct_abs 30 0 10;
#X obj 649 560 ctl_struct_abs 31 0 10;
#X obj 849 554 ctl_struct_abs 32 0 10;
#X connect 0 0 3 0;
#X connect 1 0 3 0;
#X connect 1 0 9 0;
#X connect 3 0 2 0;
#X connect 7 0 3 0;
#X connect 9 0 8 0;
#X connect 10 0 9 1;
#X connect 39 0 38 0;
#X connect 39 0 42 0;
#X connect 41 0 40 0;
#X connect 42 0 40 0;
#X connect 55 0 12 0;
#X connect 56 0 14 0;
#X connect 57 0 13 0;
#X connect 82 0 21 0;
#X connect 83 0 22 0;
#X connect 84 0 27 0;
#X connect 85 0 23 0;
#X connect 86 0 24 0;
#X connect 87 0 28 0;
#X connect 88 0 25 0;
#X connect 89 0 26 0;
#X connect 90 0 29 0;
#X connect 106 0 5 0;
#X connect 107 0 6 0;
#X connect 111 0 4 0;
#X connect 112 0 17 0;
#X connect 113 0 18 0;
#X connect 114 0 19 0;
#X connect 115 0 43 0;
#X connect 116 0 44 0;
#X connect 117 0 45 0;
#X connect 118 0 46 0;
#X connect 119 0 47 0;
#X connect 120 0 48 0;
#X connect 121 0 91 0;
#X connect 122 0 92 0;
#X connect 123 0 93 0;
#X connect 124 0 94 0;
#X connect 125 0 95 0;
#X connect 126 0 96 0;
#X connect 127 0 99 0;
#X connect 128 0 100 0;
#X connect 129 0 101 0;
#X connect 130 0 11 0;
#X connect 131 0 15 0;
#X connect 132 0 16 0;
#X connect 133 0 66 0;
#X connect 134 0 67 0;
#X connect 135 0 68 0;
#X connect 136 0 69 0;
#X connect 137 0 70 0;
#X connect 138 0 71 0;
#X connect 139 0 72 0;
#X connect 140 0 73 0;
#X connect 141 0 74 0;
