#N canvas 1959 313 1273 298 10;
#X msg -109 -184 connect localhost 3001;
#X obj -57 -121 r ctl_data;
#X floatatom -80 -68 5 0 0 0 - - -, f 5;
#X obj -80 -89 netsend 1;
#X obj 442 -94 s ctl_data;
#X obj 610 -95 s ctl_data;
#X msg -75 -150 disconnect;
#X obj 29 -70 print;
#X obj 30 -102 spigot;
#X obj 74 -138 tgl 15 0 empty empty empty 17 7 0 10 -262144 -1 -1 0
1;
#X obj -91 41 s ctl_data;
#X obj 276 -76 s ctl_data;
#X obj 107 42 s ctl_data;
#X obj 164 -118 s ctl_reset;
#X obj 165 -139 bng 15 250 50 0 empty empty empty 17 7 0 10 -262144
-1 -1;
#X obj 162 -74 s toggle_reset;
#X msg 106 -98 1;
#X msg 140 -100 0;
#X obj -91 -26 ctl_struct_abs 0 70.7 0.01;
#X obj 104 -29 ctl_struct_abs 1 70.7 0.01;
#X obj 273 -137 ctl_bang_abs 2;
#X text 442 -179 omega0;
#X text 610 -180 omega1;
#X text -87 -40 amp0;
#X obj 318 42 s ctl_data;
#X obj 906 37 s ctl_data;
#X obj 485 45 s ctl_data;
#X obj 693 33 s ctl_data;
#X text 318 -43 alpha0;
#X text 521 -41 beta0;
#X text 697 -51 delta;
#X text 907 -49 gamma;
#X obj 441 -160 ctl_struct_abs 3 1 10;
#X obj 613 -161 ctl_struct_abs 4 1 10;
#X obj 702 -31 ctl_struct_abs 7 0 0.01;
#X obj 909 -29 ctl_struct_abs 8 0 1;
#X obj 514 -19 ctl_struct_abs 6 0 10;
#X obj 329 -30 ctl_struct_abs 5 0 1;
#X connect 0 0 3 0;
#X connect 1 0 3 0;
#X connect 1 0 8 0;
#X connect 3 0 2 0;
#X connect 6 0 3 0;
#X connect 8 0 7 0;
#X connect 9 0 8 1;
#X connect 14 0 13 0;
#X connect 14 0 17 0;
#X connect 16 0 15 0;
#X connect 17 0 15 0;
#X connect 18 0 10 0;
#X connect 19 0 12 0;
#X connect 20 0 11 0;
#X connect 32 0 4 0;
#X connect 33 0 5 0;
#X connect 34 0 27 0;
#X connect 35 0 25 0;
#X connect 36 0 26 0;
#X connect 37 0 24 0;
