#N canvas 1921 93 1278 824 10;
#X msg 93 -46 connect localhost 3001;
#X obj 145 17 r ctl_data;
#X floatatom 122 70 5 0 0 0 - - -, f 5;
#X obj 122 49 netsend 1;
#X obj 502 46 s ctl_data;
#X obj 670 45 s ctl_data;
#X obj 834 45 s ctl_data;
#X msg 127 -12 disconnect;
#X obj 231 68 print;
#X obj 232 36 spigot;
#X obj 276 0 tgl 15 0 empty empty empty 17 7 0 10 -262144 -1 -1 0 1
;
#X obj 498 156 s ctl_data;
#X obj -81 183 s ctl_data;
#X obj 368 162 s ctl_data;
#X obj 117 184 s ctl_data;
#X obj 670 156 s ctl_data;
#X obj 826 153 s ctl_data;
#X obj 493 399 s ctl_data;
#X obj 665 399 s ctl_data;
#X obj 821 396 s ctl_data;
#X text 41 306 sync matrix;
#X obj -27 404 s ctl_data;
#X obj 101 404 s ctl_data;
#X obj -26 469 s ctl_data;
#X obj 102 469 s ctl_data;
#X obj -26 534 s ctl_data;
#X obj 102 534 s ctl_data;
#X obj 232 404 s ctl_data;
#X obj 233 469 s ctl_data;
#X obj 233 534 s ctl_data;
#X text 109 324 masters;
#X text -155 433 slaves;
#X text -88 375 osc_0;
#X text 129 344 osc_1;
#X text 256 343 osc_2;
#X text 5 344 osc_0;
#X text -86 433 osc_1;
#X text -85 496 osc_2;
#X obj 372 11 s ctl_reset;
#X obj 373 -10 bng 15 250 50 0 empty empty empty 17 7 0 10 -262144
-1 -1;
#X obj 370 55 s toggle_reset;
#X msg 314 31 1;
#X msg 348 29 0;
#X text 675 296 feedback matrix;
#X obj 488 493 s ctl_data;
#X obj 660 493 s ctl_data;
#X obj 816 490 s ctl_data;
#X obj 493 588 s ctl_data;
#X obj 665 588 s ctl_data;
#X obj 821 585 s ctl_data;
#X text 700 317 osc_1;
#X text 827 316 osc_2;
#X text 548 310 osc_0;
#X text 417 381 osc_0;
#X text 419 439 osc_1;
#X text 420 502 osc_2;
#X obj -81 116 ctl_struct_abs 0 70.7 0.01;
#X obj 117 119 ctl_struct_abs 1 70.7 0.01;
#X obj 365 101 ctl_bang_abs 2;
#X text 502 -39 omega0;
#X text 670 -40 omega1;
#X text 834 -41 omega2;
#X text 498 71 alpha0;
#X text 670 71 alpha1;
#X text 826 68 alpha2;
#X text -77 102 amp0;
#X obj 502 -19 ctl_struct_abs 3 1 10;
#X obj 670 -20 ctl_struct_abs 4 1 10;
#X obj 834 -20 ctl_struct_abs 5 1 10;
#X obj 499 91 ctl_struct_abs 6 0 1;
#X obj 670 91 ctl_struct_abs 7 0 1;
#X obj 832 86 ctl_struct_abs 8 0 1;
#X obj 494 334 ctl_struct_abs 9 0 10;
#X obj 665 334 ctl_struct_abs 10 0 10;
#X obj 824 330 ctl_struct_abs 11 0 10;
#X obj 486 428 ctl_struct_abs 12 0 10;
#X obj 660 428 ctl_struct_abs 13 0 10;
#X obj 819 424 ctl_struct_abs 14 0 10;
#X obj 494 523 ctl_struct_abs 15 0 10;
#X obj 665 523 ctl_struct_abs 16 0 10;
#X obj 827 517 ctl_struct_abs 17 0 10;
#X obj -28 358 ctl_toggle_abs 21;
#X obj 104 360 ctl_toggle_abs 22;
#X obj 231 359 ctl_toggle_abs 23;
#X obj -27 423 ctl_toggle_abs 24;
#X obj 102 424 ctl_toggle_abs 25;
#X obj 232 423 ctl_toggle_abs 26;
#X obj -26 489 ctl_toggle_abs 27;
#X obj 103 489 ctl_toggle_abs 28;
#X obj 233 489 ctl_toggle_abs 29;
#X obj 507 267 s ctl_data;
#X obj 679 267 s ctl_data;
#X obj 835 264 s ctl_data;
#X text 507 182 mu0;
#X text 679 182 mu1;
#X text 835 179 mu2;
#X obj 508 202 ctl_struct_abs 18 0 0.1;
#X obj 679 202 ctl_struct_abs 19 0 0.1;
#X obj 841 197 ctl_struct_abs 20 0 0.1;
#X connect 0 0 3 0;
#X connect 1 0 3 0;
#X connect 1 0 9 0;
#X connect 3 0 2 0;
#X connect 7 0 3 0;
#X connect 9 0 8 0;
#X connect 10 0 9 1;
#X connect 39 0 38 0;
#X connect 39 0 42 0;
#X connect 41 0 40 0;
#X connect 42 0 40 0;
#X connect 56 0 12 0;
#X connect 57 0 14 0;
#X connect 58 0 13 0;
#X connect 66 0 4 0;
#X connect 67 0 5 0;
#X connect 68 0 6 0;
#X connect 69 0 11 0;
#X connect 70 0 15 0;
#X connect 71 0 16 0;
#X connect 72 0 17 0;
#X connect 73 0 18 0;
#X connect 74 0 19 0;
#X connect 75 0 44 0;
#X connect 76 0 45 0;
#X connect 77 0 46 0;
#X connect 78 0 47 0;
#X connect 79 0 48 0;
#X connect 80 0 49 0;
#X connect 81 0 21 0;
#X connect 82 0 22 0;
#X connect 83 0 27 0;
#X connect 84 0 23 0;
#X connect 85 0 24 0;
#X connect 86 0 28 0;
#X connect 87 0 25 0;
#X connect 88 0 26 0;
#X connect 89 0 29 0;
#X connect 96 0 90 0;
#X connect 97 0 91 0;
#X connect 98 0 92 0;
