#N canvas 866 187 1170 471 10;
#X msg 66 205 connect localhost 3000;
#X msg 226 223 connect localhost 3001;
#X obj 157 274 r ctl_data;
#X floatatom 102 353 5 0 0 0 - - -, f 5;
#X floatatom 255 339 5 0 0 0 - - -, f 5;
#X obj 102 332 netsend 1;
#X obj 255 318 netsend 1;
#X obj 482 176 s ctl_data;
#X obj 650 175 s ctl_data;
#X obj 814 175 s ctl_data;
#X obj 814 277 s ctl_data;
#X obj 832 34 s ctl_reset;
#X obj 833 13 bng 15 250 50 0 empty empty empty 17 7 0 10 -262144 -1
-1;
#X text 482 91 l_freq;
#X text 650 90 r_freq;
#X text 814 90 l_amp;
#X text 814 192 r_amp;
#X obj 482 111 ctl_struct_abs 0 200 1;
#X msg 361 256 disconnect;
#X obj 174 425 print;
#X obj 650 110 ctl_struct_abs 1 450 1;
#X obj 814 110 ctl_struct_abs 2 70.7 0.01;
#X obj 814 212 ctl_struct_abs 3 70.7 0.01;
#X obj 177 399 spigot;
#X obj 228 357 tgl 15 0 empty empty empty 17 7 0 10 -262144 -1 -1 0
1;
#X connect 0 0 5 0;
#X connect 1 0 6 0;
#X connect 2 0 6 0;
#X connect 2 0 23 0;
#X connect 5 0 3 0;
#X connect 6 0 4 0;
#X connect 12 0 11 0;
#X connect 17 0 7 0;
#X connect 18 0 6 0;
#X connect 20 0 8 0;
#X connect 21 0 9 0;
#X connect 22 0 10 0;
#X connect 23 0 19 0;
#X connect 24 0 23 1;
