#N canvas 110 91 1253 450 10;
#X msg 93 -46 connect localhost 3001;
#X obj 145 17 r ctl_data;
#X floatatom 122 70 5 0 0 0 - - -, f 5;
#X obj 122 49 netsend 1;
#X obj 502 46 s ctl_data;
#X obj 670 45 s ctl_data;
#X obj 860 46 s ctl_data;
#X msg 127 -12 disconnect;
#X obj 231 68 print;
#X obj 232 36 spigot;
#X obj 276 0 tgl 15 0 empty empty empty 17 7 0 10 -262144 -1 -1 0 1
;
#X obj 170 120 s ctl_reset;
#X obj 171 99 bng 15 250 50 0 empty empty empty 17 7 0 10 -262144 -1
-1;
#X obj 168 164 s toggle_reset;
#X msg 112 140 1;
#X msg 146 138 0;
#X text 502 -39 cutoff;
#X text 670 -40 resonance;
#X obj 860 -19 ctl_struct_abs 2 70.7 0.01;
#X text 859 -37 amp out;
#X obj 454 188 s ctl_data;
#X obj 666 185 s ctl_data;
#X obj 865 186 s ctl_data;
#X obj 866 290 s ctl_data;
#X text 865 207 noise amp;
#X obj 865 121 ctl_struct_abs 5 70.7 0.01;
#X obj 454 123 ctl_struct_abs 3 44 10;
#X obj 429 -74 loadbang;
#X msg 429 -52 44;
#X floatatom 429 -30 5 0 0 0 - - -, f 5;
#X text 453 105 swth freq;
#X text 665 102 swth thresh;
#X text 864 103 swth amp;
#X obj 666 120 ctl_struct_abs 4 990 0.001;
#X obj 389 60 * 4.1;
#X obj 865 224 ctl_struct_abs 6 100 0.01;
#X obj 502 -19 ctl_struct_abs 0 1 10;
#X obj 670 -20 ctl_struct_abs 1 400 0.01;
#X connect 0 0 3 0;
#X connect 1 0 3 0;
#X connect 1 0 9 0;
#X connect 3 0 2 0;
#X connect 7 0 3 0;
#X connect 9 0 8 0;
#X connect 10 0 9 1;
#X connect 12 0 11 0;
#X connect 12 0 15 0;
#X connect 14 0 13 0;
#X connect 15 0 13 0;
#X connect 18 0 6 0;
#X connect 25 0 22 0;
#X connect 26 0 20 0;
#X connect 27 0 28 0;
#X connect 28 0 29 0;
#X connect 29 0 34 0;
#X connect 33 0 21 0;
#X connect 35 0 23 0;
#X connect 36 0 4 0;
#X connect 37 0 5 0;
