#N canvas 74 427 1278 195 10;
#X msg 93 -46 connect localhost 3001;
#X obj 145 17 r ctl_data;
#X floatatom 122 70 5 0 0 0 - - -, f 5;
#X obj 122 49 netsend 1;
#X msg 127 -12 disconnect;
#X obj 231 68 print;
#X obj 232 36 spigot;
#X obj 276 0 tgl 15 0 empty empty empty 17 7 0 10 -262144 -1 -1 1 1
;
#X obj 372 11 s ctl_reset;
#X obj 373 -10 bng 15 250 50 0 empty empty empty 17 7 0 10 -262144
-1 -1;
#X obj 370 55 s toggle_reset;
#X msg 314 31 1;
#X msg 348 29 0;
#X text 472 -41 sqr_flyback0;
#X obj 485 153 s ctl_data;
#X obj 478 51 s ctl_data;
#X obj 472 -21 ctl_struct_abs 0 44 10;
#X connect 0 0 3 0;
#X connect 1 0 3 0;
#X connect 1 0 6 0;
#X connect 3 0 2 0;
#X connect 4 0 3 0;
#X connect 6 0 5 0;
#X connect 7 0 6 1;
#X connect 9 0 8 0;
#X connect 9 0 12 0;
#X connect 11 0 10 0;
#X connect 12 0 10 0;
#X connect 16 0 15 0;
