#N canvas 1921 128 1278 835 10;
#X msg 93 -46 connect localhost 3001;
#X obj 145 17 r ctl_data;
#X floatatom 122 70 5 0 0 0 - - -, f 5;
#X obj 122 49 netsend 1;
#X obj 472 44 s ctl_data;
#X obj 670 45 s ctl_data;
#X obj 880 38 s ctl_data;
#X msg 127 -12 disconnect;
#X obj 231 68 print;
#X obj 232 36 spigot;
#X obj 276 0 tgl 15 0 empty empty empty 17 7 0 10 -262144 -1 -1 0 1
;
#X obj 1049 28 s ctl_data;
#X obj -81 183 s ctl_data;
#X obj 368 162 s ctl_data;
#X obj 117 184 s ctl_data;
#X obj 783 168 s ctl_data;
#X text -155 433 slaves;
#X obj 372 11 s ctl_reset;
#X obj 373 -10 bng 15 250 50 0 empty empty empty 17 7 0 10 -262144
-1 -1;
#X obj 370 55 s toggle_reset;
#X msg 314 31 1;
#X msg 348 29 0;
#X obj -81 116 ctl_struct_abs 0 70.7 0.01;
#X obj 117 119 ctl_struct_abs 1 70.7 0.01;
#X obj 365 101 ctl_bang_abs 2;
#X text -77 102 amp0;
#X obj 547 168 s ctl_data;
#X obj 1048 -36 ctl_struct_abs 6 500 1;
#X obj 880 -27 ctl_struct_abs 5 500 1;
#X obj 472 -21 ctl_struct_abs 3 720 100;
#X obj 669 -21 ctl_struct_abs 4 720 100;
#X obj 553 101 ctl_struct_abs 7 60 0.01;
#X obj 784 103 ctl_struct_abs 8 60 0.01;
#X text 590 80 thresh0;
#X text 838 79 thresh1;
#X text 884 -45 curl0;
#X text 1049 -57 curl1;
#X text 670 -40 flyback1;
#X text 472 -41 flyback0;
#X obj 783 295 s ctl_data;
#X obj 547 295 s ctl_data;
#X text 590 207 gain0;
#X text 839 206 gain1;
#X obj 553 228 ctl_struct_abs 9 40 10;
#X obj 784 230 ctl_struct_abs 10 50 10;
#X connect 0 0 3 0;
#X connect 1 0 3 0;
#X connect 1 0 9 0;
#X connect 3 0 2 0;
#X connect 7 0 3 0;
#X connect 9 0 8 0;
#X connect 10 0 9 1;
#X connect 18 0 17 0;
#X connect 18 0 21 0;
#X connect 20 0 19 0;
#X connect 21 0 19 0;
#X connect 22 0 12 0;
#X connect 23 0 14 0;
#X connect 24 0 13 0;
#X connect 27 0 11 0;
#X connect 28 0 6 0;
#X connect 29 0 4 0;
#X connect 30 0 5 0;
#X connect 31 0 26 0;
#X connect 32 0 15 0;
#X connect 43 0 40 0;
#X connect 44 0 39 0;
