#N canvas 56 76 1061 425 10;
#X msg 93 -46 connect localhost 3001;
#X obj 145 17 r ctl_data;
#X floatatom 122 70 5 0 0 0 - - -, f 5;
#X obj 122 49 netsend 1;
#X msg 127 -12 disconnect;
#X obj 231 68 print;
#X obj 232 36 spigot;
#X obj 276 0 tgl 15 0 empty empty empty 17 7 0 10 -262144 -1 -1 0 1
;
#X obj 544 34 s ctl_data;
#X obj 742 35 s ctl_data;
#X obj 544 -33 ctl_struct_abs 0 70.7 0.01;
#X obj 742 -30 ctl_struct_abs 1 70.7 0.01;
#X text 548 -47 amp0;
#X obj 430 -16 s ctl_reset;
#X obj 431 -37 bng 15 250 50 0 empty empty empty 17 7 0 10 -262144
-1 -1;
#X obj 428 28 s toggle_reset;
#X msg 372 4 1;
#X msg 406 2 0;
#N canvas 1 76 1153 673 masses 1;
#X obj 188 183 s ctl_data;
#X obj 9 184 s ctl_data;
#X text 13 91 mass1;
#X text 192 90 mass2;
#X obj 365 184 s ctl_data;
#X text 369 91 mass3;
#X obj 721 181 s ctl_data;
#X obj 541 182 s ctl_data;
#X obj 906 182 s ctl_data;
#X text 545 88 mass4;
#X text 728 88 mass5;
#X text 910 89 mass6;
#X obj 190 312 s ctl_data;
#X obj 11 313 s ctl_data;
#X obj 367 313 s ctl_data;
#X obj 723 310 s ctl_data;
#X obj 543 311 s ctl_data;
#X obj 908 311 s ctl_data;
#X obj 197 439 s ctl_data;
#X obj 18 440 s ctl_data;
#X obj 374 440 s ctl_data;
#X obj 730 437 s ctl_data;
#X obj 550 438 s ctl_data;
#X obj 915 438 s ctl_data;
#X obj 193 564 s ctl_data;
#X obj 14 565 s ctl_data;
#X obj 370 565 s ctl_data;
#X obj 195 677 s ctl_data;
#X obj 16 678 s ctl_data;
#X text 20 585 mass1;
#X text 199 584 mass2;
#X obj 372 678 s ctl_data;
#X text 376 585 mass3;
#X text 15 220 mass7;
#X text 194 219 mass8;
#X text 371 220 mass9;
#X text 547 217 mass10;
#X text 730 217 mass11;
#X text 912 218 mass12;
#X text 22 347 mass13;
#X text 201 346 mass14;
#X text 378 345 mass15;
#X text 554 344 mass16;
#X text 737 344 mass17;
#X text 919 345 mass18;
#X text 18 472 mass19;
#X text 197 471 mass20;
#X text 375 472 mass21;
#X obj 11 116 ctl_struct_abs 2 1 0.0001;
#X obj 190 115 ctl_struct_abs 3 1 0.0001;
#X obj 367 116 ctl_struct_abs 4 1 0.0001;
#X obj 543 114 ctl_struct_abs 5 1 0.0001;
#X obj 723 113 ctl_struct_abs 6 1 0.0001;
#X obj 908 114 ctl_struct_abs 7 1 0.0001;
#X obj 13 245 ctl_struct_abs 8 1 0.0001;
#X obj 192 244 ctl_struct_abs 9 1 0.0001;
#X obj 369 245 ctl_struct_abs 10 1 0.0001;
#X obj 545 243 ctl_struct_abs 11 1 0.0001;
#X obj 725 242 ctl_struct_abs 12 1 0.0001;
#X obj 910 243 ctl_struct_abs 13 1 0.0001;
#X obj 20 372 ctl_struct_abs 14 1 0.0001;
#X obj 199 371 ctl_struct_abs 15 1 0.0001;
#X obj 376 372 ctl_struct_abs 16 1 0.0001;
#X obj 552 370 ctl_struct_abs 17 1 0.0001;
#X obj 732 369 ctl_struct_abs 18 1 0.0001;
#X obj 917 370 ctl_struct_abs 19 1 0.0001;
#X obj 16 497 ctl_struct_abs 20 1 0.0001;
#X obj 195 496 ctl_struct_abs 21 1 0.0001;
#X obj 372 497 ctl_struct_abs 22 1 0.0001;
#X obj 335 36 inlet;
#X connect 48 0 1 0;
#X connect 49 0 0 0;
#X connect 50 0 4 0;
#X connect 51 0 7 0;
#X connect 52 0 6 0;
#X connect 53 0 8 0;
#X connect 54 0 13 0;
#X connect 55 0 12 0;
#X connect 56 0 14 0;
#X connect 57 0 16 0;
#X connect 58 0 15 0;
#X connect 59 0 17 0;
#X connect 60 0 19 0;
#X connect 61 0 18 0;
#X connect 62 0 20 0;
#X connect 63 0 22 0;
#X connect 64 0 21 0;
#X connect 65 0 23 0;
#X connect 66 0 25 0;
#X connect 67 0 24 0;
#X connect 68 0 26 0;
#X connect 69 0 48 0;
#X connect 69 0 49 0;
#X connect 69 0 50 0;
#X connect 69 0 51 0;
#X connect 69 0 52 0;
#X connect 69 0 53 0;
#X connect 69 0 54 0;
#X connect 69 0 55 0;
#X connect 69 0 56 0;
#X connect 69 0 57 0;
#X connect 69 0 58 0;
#X connect 69 0 59 0;
#X connect 69 0 60 0;
#X connect 69 0 61 0;
#X connect 69 0 62 0;
#X connect 69 0 63 0;
#X connect 69 0 64 0;
#X connect 69 0 65 0;
#X connect 69 0 66 0;
#X connect 69 0 67 0;
#X connect 69 0 68 0;
#X restore 193 210 pd masses;
#X floatatom 367 196 5 0 0 0 - - -, f 5;
#N canvas 184 76 1153 673 scs 0;
#X obj 188 183 s ctl_data;
#X obj 9 184 s ctl_data;
#X text 13 91 mass1;
#X text 192 90 mass2;
#X obj 365 184 s ctl_data;
#X text 369 91 mass3;
#X obj 721 181 s ctl_data;
#X obj 541 182 s ctl_data;
#X obj 906 182 s ctl_data;
#X text 545 88 mass4;
#X text 728 88 mass5;
#X text 910 89 mass6;
#X obj 190 312 s ctl_data;
#X obj 11 313 s ctl_data;
#X obj 367 313 s ctl_data;
#X obj 723 310 s ctl_data;
#X obj 543 311 s ctl_data;
#X obj 908 311 s ctl_data;
#X obj 197 439 s ctl_data;
#X obj 18 440 s ctl_data;
#X obj 374 440 s ctl_data;
#X obj 730 437 s ctl_data;
#X obj 550 438 s ctl_data;
#X obj 915 438 s ctl_data;
#X obj 193 564 s ctl_data;
#X obj 14 565 s ctl_data;
#X obj 370 565 s ctl_data;
#X obj 195 677 s ctl_data;
#X obj 16 678 s ctl_data;
#X text 20 585 sc1;
#X text 199 584 sc2;
#X obj 372 678 s ctl_data;
#X text 376 585 sc3;
#X text 15 220 sc7;
#X text 194 219 sc8;
#X text 371 220 sc9;
#X text 547 217 sc10;
#X text 730 217 sc11;
#X text 912 218 sc12;
#X text 22 347 sc13;
#X text 201 346 sc14;
#X text 378 345 sc15;
#X text 554 344 sc16;
#X text 737 344 sc17;
#X text 919 345 sc18;
#X text 18 472 sc19;
#X text 197 471 sc20;
#X text 375 472 sc21;
#X obj 11 116 ctl_struct_abs 23 100 1;
#X obj 190 115 ctl_struct_abs 24 100 1;
#X obj 367 116 ctl_struct_abs 25 100 1;
#X obj 543 114 ctl_struct_abs 26 100 1;
#X obj 723 113 ctl_struct_abs 27 100 1;
#X obj 908 114 ctl_struct_abs 28 100 1;
#X obj 13 245 ctl_struct_abs 29 1 100 1;
#X obj 192 244 ctl_struct_abs 30 1 100 1;
#X obj 369 245 ctl_struct_abs 31 1 100 1;
#X obj 545 243 ctl_struct_abs 32 1 100 1;
#X obj 725 242 ctl_struct_abs 33 1 100 1;
#X obj 910 243 ctl_struct_abs 34 1 100 1;
#X obj 20 372 ctl_struct_abs 35 1 100 1;
#X obj 199 371 ctl_struct_abs 36 1 100 1;
#X obj 376 372 ctl_struct_abs 37 1 100 1;
#X obj 552 370 ctl_struct_abs 38 1 100 1;
#X obj 732 369 ctl_struct_abs 39 1 100 1;
#X obj 917 370 ctl_struct_abs 40 1 100 1;
#X obj 16 497 ctl_struct_abs 41 1 100 1;
#X obj 195 496 ctl_struct_abs 42 1 100 1;
#X obj 372 497 ctl_struct_abs 43 1 100 1;
#X obj 335 36 inlet;
#X connect 48 0 1 0;
#X connect 49 0 0 0;
#X connect 50 0 4 0;
#X connect 51 0 7 0;
#X connect 52 0 6 0;
#X connect 53 0 8 0;
#X connect 54 0 13 0;
#X connect 55 0 12 0;
#X connect 56 0 14 0;
#X connect 57 0 16 0;
#X connect 58 0 15 0;
#X connect 59 0 17 0;
#X connect 60 0 19 0;
#X connect 61 0 18 0;
#X connect 62 0 20 0;
#X connect 63 0 22 0;
#X connect 64 0 21 0;
#X connect 65 0 23 0;
#X connect 66 0 25 0;
#X connect 67 0 24 0;
#X connect 68 0 26 0;
#X connect 69 0 48 0;
#X connect 69 0 49 0;
#X connect 69 0 50 0;
#X connect 69 0 51 0;
#X connect 69 0 52 0;
#X connect 69 0 53 0;
#X connect 69 0 54 0;
#X connect 69 0 55 0;
#X connect 69 0 56 0;
#X connect 69 0 57 0;
#X connect 69 0 58 0;
#X connect 69 0 59 0;
#X connect 69 0 60 0;
#X connect 69 0 61 0;
#X connect 69 0 62 0;
#X connect 69 0 63 0;
#X connect 69 0 64 0;
#X connect 69 0 65 0;
#X connect 69 0 66 0;
#X connect 69 0 67 0;
#X connect 69 0 68 0;
#X restore 288 233 pd scs;
#X msg 188 131 1;
#X obj 187 105 loadbang;
#X obj 106 179 * 0.0001;
#X floatatom 106 201 5 0 0 0 - - -, f 5;
#X obj 285 82 loadbang;
#X floatatom 188 153 5 0 0 0 - - -, f 5;
#X floatatom 291 126 5 0 0 0 - - -, f 5;
#X obj 363 172 * 100;
#X msg 290 104 1;
#X connect 0 0 3 0;
#X connect 1 0 3 0;
#X connect 1 0 6 0;
#X connect 3 0 2 0;
#X connect 4 0 3 0;
#X connect 6 0 5 0;
#X connect 7 0 6 1;
#X connect 10 0 8 0;
#X connect 11 0 9 0;
#X connect 14 0 13 0;
#X connect 14 0 17 0;
#X connect 16 0 15 0;
#X connect 17 0 15 0;
#X connect 21 0 26 0;
#X connect 22 0 21 0;
#X connect 23 0 24 0;
#X connect 25 0 29 0;
#X connect 26 0 23 0;
#X connect 26 0 18 0;
#X connect 27 0 28 0;
#X connect 27 0 20 0;
#X connect 28 0 19 0;
#X connect 29 0 27 0;
