#N canvas 40 419 1167 300 10;
#X msg 93 -46 connect localhost 3001;
#X obj 145 17 r ctl_data;
#X floatatom 122 70 5 0 0 0 - - -, f 5;
#X obj 122 49 netsend 1;
#X obj 773 49 s ctl_data;
#X msg 127 -12 disconnect;
#X obj 231 68 print;
#X obj 232 36 spigot;
#X obj 276 0 tgl 15 0 empty empty empty 17 7 0 10 -262144 -1 -1 0 1
;
#X obj -81 183 s ctl_data;
#X obj 117 184 s ctl_data;
#X obj -81 116 ctl_struct_abs 0 70.7 0.01;
#X obj 117 119 ctl_struct_abs 1 70.7 0.01;
#X text -77 102 amp0;
#X obj 555 179 s ctl_data;
#X text 559 85 sc1;
#X obj 778 172 s ctl_data;
#X text 782 78 sc2;
#X obj 430 -16 s ctl_reset;
#X obj 431 -37 bng 15 250 50 0 empty empty empty 17 7 0 10 -262144
-1 -1;
#X obj 428 28 s toggle_reset;
#X msg 372 4 1;
#X msg 406 2 0;
#X obj 934 169 s ctl_data;
#X text 938 75 sc3;
#X obj 552 54 s ctl_data;
#X obj 554 -14 ctl_struct_abs 2 1 1;
#X text 556 -39 mass1;
#X text 777 -44 mass2;
#X obj 775 -19 ctl_struct_abs 3 1 1;
#X obj 557 111 ctl_struct_abs 4 0.5 1;
#X obj 780 104 ctl_struct_abs 5 0.5 1;
#X obj 936 101 ctl_struct_abs 6 0.5 1;
#X connect 0 0 3 0;
#X connect 1 0 3 0;
#X connect 1 0 7 0;
#X connect 3 0 2 0;
#X connect 5 0 3 0;
#X connect 7 0 6 0;
#X connect 8 0 7 1;
#X connect 11 0 9 0;
#X connect 12 0 10 0;
#X connect 19 0 18 0;
#X connect 19 0 22 0;
#X connect 21 0 20 0;
#X connect 22 0 20 0;
#X connect 26 0 25 0;
#X connect 29 0 4 0;
#X connect 30 0 14 0;
#X connect 31 0 16 0;
#X connect 32 0 23 0;
