#N canvas 1921 87 1278 824 10;
#X msg 93 -46 connect localhost 3001;
#X obj 145 17 r ctl_data;
#X floatatom 122 70 5 0 0 0 - - -, f 5;
#X obj 122 49 netsend 1;
#X obj 110 313 s ctl_data;
#X msg 127 -12 disconnect;
#X obj 231 68 print;
#X obj 232 36 spigot;
#X obj 276 0 tgl 15 0 empty empty empty 17 7 0 10 -262144 -1 -1 0 1
;
#X obj -81 183 s ctl_data;
#X obj 117 184 s ctl_data;
#X text -77 102 amp0;
#X text 114 219 omega;
#X obj -81 116 ctl_struct_abs 0 70.7 0.01;
#X obj 117 119 ctl_struct_abs 1 70.7 0.01;
#X obj 296 310 s ctl_data;
#X obj 531 316 s ctl_data;
#X text 536 221 bow force;
#X text 300 216 bow velocity;
#X obj 709 314 s ctl_data;
#X text 714 219 bow friction param;
#X obj 112 245 ctl_struct_abs 2 44 10;
#X obj 298 242 ctl_struct_abs 3 20 0.01;
#X obj 533 248 ctl_struct_abs 4 400 10;
#X obj 711 246 ctl_struct_abs 5 10 10;
#X obj 372 11 s ctl_reset;
#X obj 373 -10 bng 15 250 50 0 empty empty empty 17 7 0 10 -262144
-1 -1;
#X obj 370 55 s toggle_reset;
#X msg 314 31 1;
#X msg 348 29 0;
#X connect 0 0 3 0;
#X connect 1 0 3 0;
#X connect 1 0 7 0;
#X connect 3 0 2 0;
#X connect 5 0 3 0;
#X connect 7 0 6 0;
#X connect 8 0 7 1;
#X connect 13 0 9 0;
#X connect 14 0 10 0;
#X connect 21 0 4 0;
#X connect 22 0 15 0;
#X connect 23 0 16 0;
#X connect 24 0 19 0;
#X connect 26 0 25 0;
#X connect 26 0 29 0;
#X connect 28 0 27 0;
#X connect 29 0 27 0;
