#N canvas 308 76 1055 657 10;
#X msg 93 -45 connect localhost 3001;
#X obj 145 17 r ctl_data;
#X floatatom 122 70 5 0 0 0 - - -, f 5;
#X obj 122 49 netsend 1;
#X msg 127 -12 disconnect;
#X obj 231 68 print;
#X obj 232 36 spigot;
#X obj 276 0 tgl 15 0 empty empty empty 17 7 0 10 -262144 -1 -1 0 1
;
#X obj 544 34 s ctl_data;
#X obj 742 35 s ctl_data;
#X obj 544 -33 ctl_struct_abs 0 70.7 0.01;
#X obj 742 -30 ctl_struct_abs 1 70.7 0.01;
#X text 548 -47 amp0;
#X obj 430 -16 s ctl_reset;
#X obj 431 -37 bng 15 250 50 0 empty empty empty 17 7 0 10 -262144
-1 -1;
#X obj 428 28 s toggle_reset;
#X msg 372 4 1;
#X msg 406 2 0;
#X obj 633 143 s ctl_data;
#X obj 454 144 s ctl_data;
#X text 458 51 mass1;
#X text 637 50 mass2;
#X obj 810 144 s ctl_data;
#X text 814 51 mass3;
#X obj 456 76 ctl_struct_abs 2 1 0.0001;
#X obj 635 75 ctl_struct_abs 3 1 0.0001;
#X obj 812 76 ctl_struct_abs 4 1 0.0001;
#X obj 377 237 s ctl_data;
#X obj 198 238 s ctl_data;
#X obj 554 238 s ctl_data;
#X obj 744 240 s ctl_data;
#X text 202 145 sc1;
#X text 381 144 sc2;
#X text 558 145 sc3;
#X text 748 147 sc4;
#X floatatom 164 139 5 0 0 0 - - -, f 5;
#X obj 367 29 loadbang;
#X msg 342 81 1;
#X floatatom 367 73 5 0 0 0 - - -, f 5;
#X obj 200 170 ctl_struct_abs 5 100 1;
#X obj 379 169 ctl_struct_abs 6 100 1;
#X obj 556 164 ctl_struct_abs 7 100 1;
#X obj 746 172 ctl_struct_abs 8 100 1;
#X obj 310 338 s ctl_data;
#X obj 131 339 s ctl_data;
#X obj 487 339 s ctl_data;
#X obj 677 341 s ctl_data;
#X text 135 246 slen1;
#X text 314 245 slen2;
#X text 491 246 slen3;
#X text 681 248 slen4;
#X floatatom 90 258 5 0 0 0 - - -, f 5;
#X obj -36 193 s ctl_data;
#X obj -41 350 s ctl_data;
#X text -36 255 bow force;
#X text -32 99 bow velocity;
#X obj -30 468 s ctl_data;
#X text -45 384 bow friction param;
#X obj 89 201 loadbang;
#X msg 88 229 0;
#X obj 159 91 loadbang;
#X msg 159 113 100;
#X obj -34 125 ctl_struct_abs 13 0 0.01;
#X obj -39 282 ctl_struct_abs 14 0 10;
#X obj -28 400 ctl_struct_abs 15 0 10;
#X obj 399 479 s ctl_data;
#X obj 220 480 s ctl_data;
#X obj 576 480 s ctl_data;
#X obj 766 482 s ctl_data;
#X floatatom 179 399 5 0 0 0 - - -, f 5;
#X obj 144 371 loadbang;
#X msg 143 399 0;
#X text 224 387 damp1;
#X obj 222 412 ctl_struct_abs 16 0 0.001;
#X obj 133 271 ctl_struct_abs 9 0 0.0001;
#X obj 310 268 ctl_struct_abs 10 0 0.0001;
#X obj 489 265 ctl_struct_abs 11 0 0.0001;
#X obj 679 273 ctl_struct_abs 12 0 0.0001;
#X text 403 386 damp2;
#X obj 399 409 ctl_struct_abs 17 0 0.001;
#X text 580 387 damp3;
#X obj 578 406 ctl_struct_abs 18 0 0.001;
#X obj 768 414 ctl_struct_abs 19 0 0.001;
#X text 770 389 damp4;
#X connect 0 0 3 0;
#X connect 1 0 3 0;
#X connect 1 0 6 0;
#X connect 3 0 2 0;
#X connect 4 0 3 0;
#X connect 6 0 5 0;
#X connect 7 0 6 1;
#X connect 10 0 8 0;
#X connect 11 0 9 0;
#X connect 14 0 13 0;
#X connect 14 0 17 0;
#X connect 14 0 37 0;
#X connect 14 0 61 0;
#X connect 14 0 59 0;
#X connect 14 0 71 0;
#X connect 16 0 15 0;
#X connect 17 0 15 0;
#X connect 24 0 19 0;
#X connect 25 0 18 0;
#X connect 26 0 22 0;
#X connect 35 0 39 0;
#X connect 35 0 40 0;
#X connect 35 0 41 0;
#X connect 35 0 42 0;
#X connect 36 0 37 0;
#X connect 37 0 38 0;
#X connect 38 0 24 0;
#X connect 38 0 25 0;
#X connect 38 0 26 0;
#X connect 39 0 28 0;
#X connect 40 0 27 0;
#X connect 41 0 29 0;
#X connect 42 0 30 0;
#X connect 51 0 74 0;
#X connect 51 0 75 0;
#X connect 51 0 76 0;
#X connect 51 0 77 0;
#X connect 58 0 59 0;
#X connect 59 0 51 0;
#X connect 60 0 61 0;
#X connect 61 0 35 0;
#X connect 62 0 52 0;
#X connect 63 0 53 0;
#X connect 64 0 56 0;
#X connect 69 0 73 0;
#X connect 69 0 79 0;
#X connect 69 0 81 0;
#X connect 69 0 82 0;
#X connect 70 0 71 0;
#X connect 71 0 69 0;
#X connect 73 0 66 0;
#X connect 74 0 44 0;
#X connect 75 0 43 0;
#X connect 76 0 45 0;
#X connect 77 0 46 0;
#X connect 79 0 65 0;
#X connect 81 0 67 0;
#X connect 82 0 68 0;
