#N canvas 43 76 1298 433 10;
#X msg 93 -46 connect localhost 3001;
#X obj 145 17 r ctl_data;
#X floatatom 122 70 5 0 0 0 - - -, f 5;
#X obj 122 49 netsend 1;
#X obj 502 46 s ctl_data;
#X obj 670 45 s ctl_data;
#X msg 127 -12 disconnect;
#X obj 231 68 print;
#X obj 232 36 spigot;
#X obj 276 0 tgl 15 0 empty empty empty 17 7 0 10 -262144 -1 -1 0 1
;
#X obj -81 183 s ctl_data;
#X obj 368 162 s ctl_data;
#X obj 117 184 s ctl_data;
#X obj -62 273 s ctl_data;
#X obj 66 273 s ctl_data;
#X obj 372 11 s ctl_reset;
#X obj 373 -10 bng 15 250 50 0 empty empty empty 17 7 0 10 -262144
-1 -1;
#X obj 370 55 s toggle_reset;
#X msg 314 31 1;
#X msg 348 29 0;
#X obj -81 116 ctl_struct_abs 0 70.7 0.01;
#X obj 117 119 ctl_struct_abs 1 70.7 0.01;
#X text 502 -39 omega0;
#X text 670 -40 omega1;
#X text -77 102 amp0;
#X obj 502 -19 ctl_struct_abs 2 1 10;
#X obj 670 -20 ctl_struct_abs 3 1 10;
#X obj 838 45 s ctl_data;
#X obj 1006 44 s ctl_data;
#X obj 500 157 s ctl_data;
#X obj 668 156 s ctl_data;
#X text 838 -40 thresh0;
#X text 1006 -41 thresh1;
#X obj 838 -20 ctl_struct_abs 4 70 0.01;
#X obj 1006 -21 ctl_struct_abs 5 70 0.01;
#X text 500 72 sync_g0;
#X obj 500 92 ctl_struct_abs 6 1 1;
#X text 668 71 sync_g1;
#X obj 668 91 ctl_struct_abs 7 1 1;
#X obj 365 101 ctl_bang_abs 10;
#X text -30 213 sync0;
#X text 94 213 sync1;
#X obj -63 227 ctl_toggle_abs 8;
#X obj 69 229 ctl_toggle_abs 9;
#X connect 0 0 3 0;
#X connect 1 0 3 0;
#X connect 1 0 8 0;
#X connect 3 0 2 0;
#X connect 6 0 3 0;
#X connect 8 0 7 0;
#X connect 9 0 8 1;
#X connect 16 0 15 0;
#X connect 16 0 19 0;
#X connect 18 0 17 0;
#X connect 19 0 17 0;
#X connect 20 0 10 0;
#X connect 21 0 12 0;
#X connect 25 0 4 0;
#X connect 26 0 5 0;
#X connect 33 0 27 0;
#X connect 34 0 28 0;
#X connect 36 0 29 0;
#X connect 38 0 30 0;
#X connect 39 0 11 0;
#X connect 42 0 13 0;
#X connect 43 0 14 0;
