#N canvas 1 82 1113 611 10;
#X msg 93 -46 connect localhost 3001;
#X obj 145 17 r ctl_data;
#X floatatom 122 70 5 0 0 0 - - -, f 5;
#X obj 122 49 netsend 1;
#X msg 127 -12 disconnect;
#X obj 231 68 print;
#X obj 232 36 spigot;
#X obj 276 0 tgl 15 0 empty empty empty 17 7 0 10 -262144 -1 -1 0 1
;
#X obj -95 27 s ctl_data;
#X obj -15 180 s ctl_data;
#X obj -96 121 s ctl_data;
#X obj 146 112 s ctl_reset;
#X obj 147 91 bng 15 250 50 0 empty empty empty 17 7 0 10 -262144 -1
-1;
#X obj 144 156 s toggle_reset;
#X msg 88 132 1;
#X msg 122 130 0;
#X obj -95 -40 ctl_struct_abs 0 70.7 0.01;
#X obj -96 56 ctl_struct_abs 1 70.7 0.01;
#X obj -18 119 ctl_bang_abs 2;
#X text -91 -54 amp0;
#X obj 560 30 s ctl_data;
#X obj 334 30 s ctl_data;
#X text 377 -58 freq0;
#X text 615 -59 freq1;
#X obj 337 -37 ctl_struct_abs 29 40 10;
#X obj 561 -35 ctl_struct_abs 30 50 10;
#N canvas 1 100 450 300 notes 0;
#X text 49 40 skew is no good -- totally unstable \, maybe with better
numerical solver...;
#X restore 22 -61 pd notes;
#X obj 386 227 s ctl_data;
#X obj 361 139 s ctl_data;
#X obj 658 239 s ctl_data;
#X obj 613 131 s ctl_data;
#X obj 700 332 s ctl_data;
#X obj 435 329 s ctl_data;
#X obj 758 430 s ctl_data;
#X obj 493 427 s ctl_data;
#X text 404 51 alpha0;
#X text 441 138 res0;
#X text 656 43 alpha1;
#X text 714 149 res1;
#X text 480 239 sqr_in0;
#X text 755 243 sqr_in1;
#X text 527 331 tri_in0;
#X text 804 333 tri_in1;
#X obj 361 68 ctl_struct_abs 31 0 10;
#X obj 387 161 ctl_struct_abs 32 0 0.01;
#X obj 616 64 ctl_struct_abs 33 0 10;
#X obj 659 174 ctl_struct_abs 34 0 0.01;
#X obj 438 262 ctl_struct_abs 35 0 0.01;
#X obj 701 267 ctl_struct_abs 36 0 0.01;
#X obj 487 352 ctl_struct_abs 37 0 0.01;
#X obj 750 357 ctl_struct_abs 38 0 0.01;
#N canvas 129 131 1278 329 lfos 1;
#X obj 311 349 s ctl_data;
#X obj 483 349 s ctl_data;
#X obj 639 346 s ctl_data;
#X text 486 241 feedback matrix;
#X obj 306 443 s ctl_data;
#X obj 478 443 s ctl_data;
#X obj 634 440 s ctl_data;
#X obj 311 538 s ctl_data;
#X obj 483 538 s ctl_data;
#X obj 639 535 s ctl_data;
#X obj 815 352 s ctl_data;
#X obj 810 446 s ctl_data;
#X obj 815 541 s ctl_data;
#X obj 309 643 s ctl_data;
#X obj 481 643 s ctl_data;
#X obj 637 640 s ctl_data;
#X obj 813 646 s ctl_data;
#X text 366 260 lfo_0;
#X text 518 267 lfo_1;
#X text 645 266 lfo_2;
#X text 821 272 lfo_3;
#X text 67 -81 sync matrix;
#X obj -62 12 s ctl_data;
#X obj 66 12 s ctl_data;
#X obj -61 77 s ctl_data;
#X obj 67 77 s ctl_data;
#X obj -61 142 s ctl_data;
#X obj 67 142 s ctl_data;
#X obj 197 12 s ctl_data;
#X obj 198 77 s ctl_data;
#X obj 198 142 s ctl_data;
#X text 74 -68 masters;
#X obj 328 13 s ctl_data;
#X obj 329 78 s ctl_data;
#X obj 329 143 s ctl_data;
#X obj -53 227 s ctl_data;
#X obj 75 227 s ctl_data;
#X obj 206 227 s ctl_data;
#X obj 337 228 s ctl_data;
#X text -123 -17 lfo_0;
#X text -121 41 lfo_1;
#X text -120 104 lfo_2;
#X text -112 189 lfo_3;
#X text -30 -48 lfo_0;
#X text 94 -48 lfo_1;
#X text 221 -49 lfo_2;
#X text 352 -48 lfo_3;
#X obj -63 -34 ctl_toggle_abs 3;
#X obj 69 -32 ctl_toggle_abs 4;
#X obj 196 -33 ctl_toggle_abs 5;
#X obj 327 -32 ctl_toggle_abs 6;
#X obj -62 31 ctl_toggle_abs 7;
#X obj 67 32 ctl_toggle_abs 8;
#X obj 197 31 ctl_toggle_abs 9;
#X obj 328 32 ctl_toggle_abs 10;
#X obj -61 97 ctl_toggle_abs 11;
#X obj 68 97 ctl_toggle_abs 12;
#X obj 198 97 ctl_toggle_abs 13;
#X obj 327 98 ctl_toggle_abs 14;
#X obj -53 182 ctl_toggle_abs 15;
#X obj 76 182 ctl_toggle_abs 16;
#X obj 206 182 ctl_toggle_abs 17;
#X obj 335 181 ctl_toggle_abs 18;
#X obj 528 32 s ctl_data;
#X obj 720 40 s ctl_data;
#X obj 105 385 s ctl_data;
#X text 583 -57 omega0;
#X text 755 -42 omega1;
#X text 624 37 omega2;
#X text 804 42 omega3;
#X obj 526 131 s ctl_data;
#X obj 698 131 s ctl_data;
#X obj -63 390 s ctl_data;
#X obj 117 541 s ctl_data;
#X obj -62 544 s ctl_data;
#X text -44 297 g0;
#X text 114 287 g1;
#X text -47 451 g2;
#X text 122 453 g3;
#X obj 312 284 ctl_struct_abs 43 0 10;
#X obj 483 284 ctl_struct_abs 44 0 10;
#X obj 642 280 ctl_struct_abs 45 0 10;
#X obj 817 286 ctl_struct_abs 46 0 10;
#X obj 304 378 ctl_struct_abs 47 0 10;
#X obj 478 378 ctl_struct_abs 48 0 10;
#X obj 637 374 ctl_struct_abs 49 0 10;
#X obj 813 380 ctl_struct_abs 50 0 10;
#X obj 312 473 ctl_struct_abs 51 0 10;
#X obj 483 473 ctl_struct_abs 52 0 10;
#X obj 645 467 ctl_struct_abs 53 0 10;
#X obj 821 473 ctl_struct_abs 54 0 10;
#X obj 310 578 ctl_struct_abs 55 0 10;
#X obj 481 578 ctl_struct_abs 56 0 10;
#X obj 643 572 ctl_struct_abs 57 0 10;
#X obj 819 578 ctl_struct_abs 58 0 10;
#X obj -60 324 ctl_struct_abs 59 0 1;
#X obj 107 318 ctl_struct_abs 60 0 1;
#X obj -59 478 ctl_struct_abs 61 0 1;
#X obj 120 475 ctl_struct_abs 62 0 1;
#X obj 720 -25 ctl_struct_abs 40 0 0.1;
#X obj 716 68 ctl_struct_abs 42 0 0.1;
#X obj 520 62 ctl_struct_abs 41 0 0.1;
#X obj 528 -34 ctl_struct_abs 39 0 0.1;
#X connect 47 0 22 0;
#X connect 48 0 23 0;
#X connect 49 0 28 0;
#X connect 50 0 32 0;
#X connect 51 0 24 0;
#X connect 52 0 25 0;
#X connect 53 0 29 0;
#X connect 54 0 33 0;
#X connect 55 0 26 0;
#X connect 56 0 27 0;
#X connect 57 0 30 0;
#X connect 58 0 34 0;
#X connect 59 0 35 0;
#X connect 60 0 36 0;
#X connect 61 0 37 0;
#X connect 62 0 38 0;
#X connect 79 0 0 0;
#X connect 80 0 1 0;
#X connect 81 0 2 0;
#X connect 82 0 10 0;
#X connect 83 0 4 0;
#X connect 84 0 5 0;
#X connect 85 0 6 0;
#X connect 86 0 11 0;
#X connect 87 0 7 0;
#X connect 88 0 8 0;
#X connect 89 0 9 0;
#X connect 90 0 12 0;
#X connect 91 0 13 0;
#X connect 92 0 14 0;
#X connect 93 0 15 0;
#X connect 94 0 16 0;
#X connect 95 0 72 0;
#X connect 96 0 65 0;
#X connect 97 0 74 0;
#X connect 98 0 73 0;
#X connect 99 0 64 0;
#X connect 100 0 71 0;
#X connect 101 0 70 0;
#X connect 102 0 63 0;
#X restore -48 235 pd lfos;
#N canvas 76 127 1289 462 gains 1;
#X obj 43 78 ctl_struct_abs 63 0 1;
#X obj 43 140 s ctl_data;
#X obj 198 141 s ctl_data;
#X obj 355 143 s ctl_data;
#X obj 510 144 s ctl_data;
#X obj 665 146 s ctl_data;
#X obj 820 147 s ctl_data;
#X obj 977 144 s ctl_data;
#X obj 1132 145 s ctl_data;
#X obj 1289 144 s ctl_data;
#X obj 1444 145 s ctl_data;
#X obj 1597 147 s ctl_data;
#X obj 1752 148 s ctl_data;
#X obj 1910 147 s ctl_data;
#X obj 2065 148 s ctl_data;
#X obj 42 234 s ctl_data;
#X obj 197 235 s ctl_data;
#X obj 354 237 s ctl_data;
#X obj 509 238 s ctl_data;
#X obj 664 240 s ctl_data;
#X obj 819 241 s ctl_data;
#X obj 976 238 s ctl_data;
#X obj 1131 239 s ctl_data;
#X obj 1288 238 s ctl_data;
#X obj 1443 239 s ctl_data;
#X obj 1596 241 s ctl_data;
#X obj 1751 242 s ctl_data;
#X obj 1909 241 s ctl_data;
#X obj 2064 242 s ctl_data;
#X obj 44 325 s ctl_data;
#X obj 199 326 s ctl_data;
#X obj 356 328 s ctl_data;
#X obj 511 329 s ctl_data;
#X obj 666 331 s ctl_data;
#X obj 821 332 s ctl_data;
#X obj 978 329 s ctl_data;
#X obj 1133 330 s ctl_data;
#X obj 1290 329 s ctl_data;
#X obj 1445 330 s ctl_data;
#X obj 1598 332 s ctl_data;
#X obj 1753 333 s ctl_data;
#X obj 1911 332 s ctl_data;
#X obj 2066 333 s ctl_data;
#X obj 43 415 s ctl_data;
#X obj 198 416 s ctl_data;
#X obj 355 418 s ctl_data;
#X obj 510 419 s ctl_data;
#X obj 665 421 s ctl_data;
#X obj 820 422 s ctl_data;
#X obj 977 419 s ctl_data;
#X obj 1132 420 s ctl_data;
#X obj 1289 419 s ctl_data;
#X obj 1444 420 s ctl_data;
#X obj 1597 422 s ctl_data;
#X obj 1752 423 s ctl_data;
#X obj 1910 422 s ctl_data;
#X obj 2065 423 s ctl_data;
#X obj 45 507 s ctl_data;
#X obj 200 508 s ctl_data;
#X obj 357 510 s ctl_data;
#X obj 512 511 s ctl_data;
#X obj 667 513 s ctl_data;
#X obj 822 514 s ctl_data;
#X obj 979 511 s ctl_data;
#X obj 1134 512 s ctl_data;
#X obj 1291 511 s ctl_data;
#X obj 1446 512 s ctl_data;
#X obj 1599 514 s ctl_data;
#X obj 1754 515 s ctl_data;
#X obj 1912 514 s ctl_data;
#X obj 2067 515 s ctl_data;
#X obj 49 597 s ctl_data;
#X obj 204 598 s ctl_data;
#X obj 361 600 s ctl_data;
#X obj 516 601 s ctl_data;
#X obj 671 603 s ctl_data;
#X obj 826 604 s ctl_data;
#X obj 983 601 s ctl_data;
#X obj 1138 602 s ctl_data;
#X obj 1295 601 s ctl_data;
#X obj 1450 602 s ctl_data;
#X obj 1603 604 s ctl_data;
#X obj 1758 605 s ctl_data;
#X obj 1916 604 s ctl_data;
#X obj 2071 605 s ctl_data;
#X obj 50 686 s ctl_data;
#X obj 205 687 s ctl_data;
#X obj 362 689 s ctl_data;
#X obj 517 690 s ctl_data;
#X obj 669 690 s ctl_data;
#X obj 817 694 s ctl_data;
#X obj 984 690 s ctl_data;
#X obj 1139 691 s ctl_data;
#X obj 1296 690 s ctl_data;
#X obj 1451 691 s ctl_data;
#X obj 1604 693 s ctl_data;
#X obj 1759 694 s ctl_data;
#X obj 1917 693 s ctl_data;
#X obj 2072 694 s ctl_data;
#X obj 49 775 s ctl_data;
#X obj 204 776 s ctl_data;
#X obj 361 778 s ctl_data;
#X obj 516 779 s ctl_data;
#X obj 671 781 s ctl_data;
#X obj 826 782 s ctl_data;
#X obj 983 779 s ctl_data;
#X obj 1138 780 s ctl_data;
#X obj 1295 779 s ctl_data;
#X obj 1450 780 s ctl_data;
#X obj 1603 782 s ctl_data;
#X obj 1758 783 s ctl_data;
#X obj 1916 782 s ctl_data;
#X obj 2071 783 s ctl_data;
#X text 5 100 lfo0;
#X text 4 194 lfo1;
#X text 6 285 lfo2;
#X text 5 375 lfo3;
#X text 6 468 tri0;
#X text 11 557 sqr0;
#X text 12 646 tri1;
#X text 7 733 sqr1;
#X text 82 46 osc0;
#X text 276 56 osc1;
#X text 442 61 lfo0f;
#X text 562 61 lfo1f;
#X text 708 63 lfo2f;
#X text 860 53 lfo3f;
#X text 988 59 lfo0d;
#X text 1139 58 lfo1d;
#X text 1298 58 lfo2d;
#X text 1465 58 lfo3d;
#X text 1609 63 moog0f;
#X text 1754 64 moog1f;
#X text 1932 64 moog0r;
#X text 2074 64 moog1r;
#X obj 42 172 ctl_struct_abs 64 0 1;
#X obj 43 261 ctl_struct_abs 65 0 1;
#X obj 43 346 ctl_struct_abs 66 0 1;
#X obj 45 438 ctl_struct_abs 67 0 1;
#X obj 49 528 ctl_struct_abs 68 0 1;
#X obj 49 616 ctl_struct_abs 69 0 1;
#X obj 49 706 ctl_struct_abs 70 0 1;
#X obj 199 78 ctl_struct_abs 71 0 1;
#X obj 198 172 ctl_struct_abs 72 0 1;
#X obj 200 263 ctl_struct_abs 73 0 1;
#X obj 202 353 ctl_struct_abs 74 0 1;
#X obj 201 445 ctl_struct_abs 75 0 1;
#X obj 205 535 ctl_struct_abs 76 0 1;
#X obj 206 624 ctl_struct_abs 77 0 1;
#X obj 205 713 ctl_struct_abs 78 0 1;
#X obj 354 79 ctl_struct_abs 79 0 1;
#X obj 353 173 ctl_struct_abs 80 0 1;
#X obj 355 264 ctl_struct_abs 81 0 1;
#X obj 354 354 ctl_struct_abs 82 0 1;
#X obj 356 446 ctl_struct_abs 83 0 1;
#X obj 360 536 ctl_struct_abs 84 0 1;
#X obj 361 625 ctl_struct_abs 85 0 1;
#X obj 359 713 ctl_struct_abs 86 0 1;
#X obj 510 79 ctl_struct_abs 87 0 1;
#X obj 509 173 ctl_struct_abs 88 0 1;
#X obj 511 264 ctl_struct_abs 89 0 1;
#X obj 510 354 ctl_struct_abs 90 0 1;
#X obj 512 446 ctl_struct_abs 91 0 1;
#X obj 516 536 ctl_struct_abs 92 0 1;
#X obj 517 625 ctl_struct_abs 93 0 1;
#X obj 515 713 ctl_struct_abs 94 0 1;
#X obj 665 79 ctl_struct_abs 95 0 1;
#X obj 664 173 ctl_struct_abs 96 0 1;
#X obj 666 264 ctl_struct_abs 97 0 1;
#X obj 665 354 ctl_struct_abs 98 0 1;
#X obj 667 446 ctl_struct_abs 99 0 1;
#X obj 671 536 ctl_struct_abs 100 0 1;
#X obj 671 625 ctl_struct_abs 101 0 1;
#X obj 671 714 ctl_struct_abs 102 0 1;
#X obj 821 79 ctl_struct_abs 103 0 1;
#X obj 820 173 ctl_struct_abs 104 0 1;
#X obj 822 264 ctl_struct_abs 105 0 1;
#X obj 821 354 ctl_struct_abs 106 0 1;
#X obj 823 446 ctl_struct_abs 107 0 1;
#X obj 824 537 ctl_struct_abs 108 0 1;
#X obj 828 625 ctl_struct_abs 109 0 1;
#X obj 827 714 ctl_struct_abs 110 0 1;
#X obj 976 80 ctl_struct_abs 111 0 1;
#X obj 975 174 ctl_struct_abs 112 0 1;
#X obj 977 265 ctl_struct_abs 113 0 1;
#X obj 976 355 ctl_struct_abs 114 0 1;
#X obj 978 447 ctl_struct_abs 115 0 1;
#X obj 982 537 ctl_struct_abs 116 0 1;
#X obj 983 626 ctl_struct_abs 117 0 1;
#X obj 982 715 ctl_struct_abs 118 0 1;
#X obj 1132 80 ctl_struct_abs 119 0 1;
#X obj 1131 174 ctl_struct_abs 120 0 1;
#X obj 1132 266 ctl_struct_abs 121 0 1;
#X obj 1132 353 ctl_struct_abs 122 0 1;
#X obj 1134 447 ctl_struct_abs 123 0 1;
#X obj 1137 537 ctl_struct_abs 124 0 1;
#X obj 1139 626 ctl_struct_abs 125 0 1;
#X obj 1138 715 ctl_struct_abs 126 0 1;
#X obj 1286 80 ctl_struct_abs 127 0 1;
#X obj 1285 174 ctl_struct_abs 128 0 1;
#X obj 1287 265 ctl_struct_abs 129 0 1;
#X obj 1286 355 ctl_struct_abs 130 0 1;
#X obj 1288 447 ctl_struct_abs 131 0 1;
#X obj 1293 536 ctl_struct_abs 132 0 1;
#X obj 1293 626 ctl_struct_abs 133 0 1;
#X obj 1292 715 ctl_struct_abs 134 0 1;
#X obj 1443 81 ctl_struct_abs 135 0 1;
#X obj 1442 175 ctl_struct_abs 136 0 1;
#X obj 1444 266 ctl_struct_abs 137 0 1;
#X obj 1443 356 ctl_struct_abs 138 0 1;
#X obj 1445 448 ctl_struct_abs 139 0 1;
#X obj 1449 538 ctl_struct_abs 140 0 1;
#X obj 1450 626 ctl_struct_abs 141 0 1;
#X obj 1449 716 ctl_struct_abs 142 0 1;
#X obj 1598 82 ctl_struct_abs 143 0 10;
#X obj 1597 176 ctl_struct_abs 144 0 10;
#X obj 1600 266 ctl_struct_abs 145 0 10;
#X obj 1598 357 ctl_struct_abs 146 0 10;
#X obj 1600 449 ctl_struct_abs 147 0 10;
#X obj 1604 539 ctl_struct_abs 148 0 10;
#X obj 1605 628 ctl_struct_abs 149 0 10;
#X obj 1604 717 ctl_struct_abs 150 0 10;
#X obj 1760 717 ctl_struct_abs 158 0 10;
#X obj 1761 628 ctl_struct_abs 157 0 10;
#X obj 1758 535 ctl_struct_abs 156 0 10;
#X obj 1756 449 ctl_struct_abs 155 0 10;
#X obj 1754 357 ctl_struct_abs 154 0 10;
#X obj 1755 267 ctl_struct_abs 153 0 10;
#X obj 1753 176 ctl_struct_abs 152 0 10;
#X obj 1754 82 ctl_struct_abs 151 0 10;
#X obj 1909 82 ctl_struct_abs 159 0 0.001;
#X obj 1908 176 ctl_struct_abs 160 0 0.001;
#X obj 1910 267 ctl_struct_abs 161 0 0.001;
#X obj 1909 357 ctl_struct_abs 162 0 0.001;
#X obj 1913 449 ctl_struct_abs 163 0 0.001;
#X obj 1915 539 ctl_struct_abs 164 0 0.001;
#X obj 1916 628 ctl_struct_abs 165 0 0.001;
#X obj 1915 717 ctl_struct_abs 166 0 0.001;
#X obj 2071 717 ctl_struct_abs 174 0 0.001;
#X obj 2072 628 ctl_struct_abs 173 0 0.001;
#X obj 2071 539 ctl_struct_abs 172 0 0.001;
#X obj 2067 449 ctl_struct_abs 171 0 0.001;
#X obj 2065 357 ctl_struct_abs 170 0 0.001;
#X obj 2063 267 ctl_struct_abs 169 0 0.001;
#X obj 2064 176 ctl_struct_abs 168 0 0.001;
#X obj 2065 82 ctl_struct_abs 167 0 0.001;
#X connect 0 0 1 0;
#X connect 135 0 15 0;
#X connect 136 0 29 0;
#X connect 137 0 43 0;
#X connect 138 0 57 0;
#X connect 139 0 71 0;
#X connect 140 0 85 0;
#X connect 141 0 99 0;
#X connect 142 0 2 0;
#X connect 143 0 16 0;
#X connect 144 0 30 0;
#X connect 145 0 44 0;
#X connect 146 0 58 0;
#X connect 147 0 72 0;
#X connect 148 0 86 0;
#X connect 149 0 100 0;
#X connect 150 0 3 0;
#X connect 151 0 17 0;
#X connect 152 0 31 0;
#X connect 153 0 45 0;
#X connect 154 0 59 0;
#X connect 155 0 73 0;
#X connect 156 0 87 0;
#X connect 157 0 101 0;
#X connect 158 0 4 0;
#X connect 159 0 18 0;
#X connect 160 0 32 0;
#X connect 161 0 46 0;
#X connect 162 0 60 0;
#X connect 163 0 74 0;
#X connect 164 0 88 0;
#X connect 165 0 102 0;
#X connect 166 0 5 0;
#X connect 167 0 19 0;
#X connect 168 0 33 0;
#X connect 169 0 47 0;
#X connect 170 0 61 0;
#X connect 171 0 75 0;
#X connect 172 0 89 0;
#X connect 173 0 103 0;
#X connect 174 0 6 0;
#X connect 175 0 20 0;
#X connect 176 0 34 0;
#X connect 177 0 48 0;
#X connect 178 0 62 0;
#X connect 179 0 76 0;
#X connect 180 0 90 0;
#X connect 181 0 104 0;
#X connect 182 0 7 0;
#X connect 183 0 21 0;
#X connect 184 0 35 0;
#X connect 185 0 49 0;
#X connect 186 0 63 0;
#X connect 187 0 77 0;
#X connect 188 0 91 0;
#X connect 189 0 105 0;
#X connect 190 0 8 0;
#X connect 191 0 22 0;
#X connect 192 0 36 0;
#X connect 193 0 50 0;
#X connect 194 0 64 0;
#X connect 195 0 78 0;
#X connect 196 0 92 0;
#X connect 197 0 106 0;
#X connect 198 0 9 0;
#X connect 199 0 23 0;
#X connect 200 0 37 0;
#X connect 201 0 51 0;
#X connect 202 0 65 0;
#X connect 203 0 79 0;
#X connect 204 0 93 0;
#X connect 205 0 107 0;
#X connect 206 0 10 0;
#X connect 207 0 24 0;
#X connect 208 0 38 0;
#X connect 209 0 52 0;
#X connect 210 0 66 0;
#X connect 211 0 80 0;
#X connect 212 0 94 0;
#X connect 213 0 108 0;
#X connect 214 0 11 0;
#X connect 215 0 25 0;
#X connect 216 0 39 0;
#X connect 217 0 53 0;
#X connect 218 0 67 0;
#X connect 219 0 81 0;
#X connect 220 0 95 0;
#X connect 221 0 109 0;
#X connect 222 0 110 0;
#X connect 223 0 96 0;
#X connect 224 0 82 0;
#X connect 225 0 68 0;
#X connect 226 0 54 0;
#X connect 227 0 40 0;
#X connect 228 0 26 0;
#X connect 229 0 12 0;
#X connect 230 0 13 0;
#X connect 231 0 27 0;
#X connect 232 0 41 0;
#X connect 233 0 55 0;
#X connect 234 0 69 0;
#X connect 235 0 83 0;
#X connect 236 0 97 0;
#X connect 237 0 111 0;
#X connect 238 0 112 0;
#X connect 239 0 98 0;
#X connect 240 0 84 0;
#X connect 241 0 70 0;
#X connect 242 0 56 0;
#X connect 243 0 42 0;
#X connect 244 0 28 0;
#X connect 245 0 14 0;
#X restore 49 233 pd gains;
#N canvas 32 517 859 286 osc_params 1;
#X obj -731 -593 s ctl_data;
#X text -736 -706 sqr0 curl;
#X obj -507 -590 s ctl_data;
#X text -512 -703 sqr1 curl;
#X obj -333 -586 s ctl_data;
#X obj -109 -583 s ctl_data;
#X text -338 -699 tri0 curl;
#X text -114 -696 tri1 curl;
#X obj -730 -432 s ctl_data;
#X obj -506 -429 s ctl_data;
#X text -735 -545 skew0;
#X text -511 -542 skew1;
#X obj -512 -504 ctl_struct_abs 28 500 0.0001;
#X obj -736 -507 ctl_struct_abs 27 500 0.001;
#X obj -339 -661 ctl_struct_abs 23 500 1;
#X obj -115 -658 ctl_struct_abs 24 500 1;
#X obj -737 -668 ctl_struct_abs 21 500 1;
#X obj -514 -664 ctl_struct_abs 22 500 1;
#X connect 12 0 9 0;
#X connect 13 0 8 0;
#X connect 14 0 4 0;
#X connect 15 0 5 0;
#X connect 16 0 0 0;
#X connect 17 0 2 0;
#X restore 69 343 pd osc_params;
#X connect 0 0 3 0;
#X connect 1 0 3 0;
#X connect 1 0 6 0;
#X connect 3 0 2 0;
#X connect 4 0 3 0;
#X connect 6 0 5 0;
#X connect 7 0 6 1;
#X connect 12 0 11 0;
#X connect 12 0 15 0;
#X connect 14 0 13 0;
#X connect 15 0 13 0;
#X connect 16 0 8 0;
#X connect 17 0 10 0;
#X connect 18 0 9 0;
#X connect 24 0 21 0;
#X connect 25 0 20 0;
#X connect 43 0 28 0;
#X connect 44 0 27 0;
#X connect 45 0 30 0;
#X connect 46 0 29 0;
#X connect 47 0 32 0;
#X connect 48 0 31 0;
#X connect 49 0 34 0;
#X connect 50 0 33 0;
