#N canvas 2039 105 1113 611 10;
#X msg 93 -46 connect localhost 3001;
#X obj 145 17 r ctl_data;
#X floatatom 122 70 5 0 0 0 - - -, f 5;
#X obj 122 49 netsend 1;
#X msg 127 -12 disconnect;
#X obj 231 68 print;
#X obj 232 36 spigot;
#X obj 276 0 tgl 15 0 empty empty empty 17 7 0 10 -262144 -1 -1 0 1
;
#X obj -95 27 s ctl_data;
#X obj -15 180 s ctl_data;
#X obj -96 121 s ctl_data;
#X obj 146 112 s ctl_reset;
#X obj 147 91 bng 15 250 50 0 empty empty empty 17 7 0 10 -262144 -1
-1;
#X obj 144 156 s toggle_reset;
#X msg 88 132 1;
#X msg 122 130 0;
#X obj -95 -40 ctl_struct_abs 0 70.7 0.01;
#X obj -96 56 ctl_struct_abs 1 70.7 0.01;
#X obj -18 119 ctl_bang_abs 2;
#X text -91 -54 amp0;
#X obj 560 30 s ctl_data;
#X obj 334 30 s ctl_data;
#X text 377 -58 freq0;
#X text 615 -59 freq1;
#X obj 337 -37 ctl_struct_abs 29 40 10;
#X obj 561 -35 ctl_struct_abs 30 50 10;
#N canvas 1 100 450 300 notes 0;
#X text 49 40 skew is no good -- totally unstable \, maybe with better
numerical solver...;
#X restore 22 -61 pd notes;
#X obj 386 227 s ctl_data;
#X obj 361 139 s ctl_data;
#X obj 658 239 s ctl_data;
#X obj 613 131 s ctl_data;
#X obj 700 332 s ctl_data;
#X obj 435 329 s ctl_data;
#X obj 758 430 s ctl_data;
#X obj 493 427 s ctl_data;
#X text 404 51 alpha0;
#X text 441 138 res0;
#X text 656 43 alpha1;
#X text 714 149 res1;
#X text 480 239 sqr_in0;
#X text 755 243 sqr_in1;
#X text 527 331 tri_in0;
#X text 804 333 tri_in1;
#X obj 361 68 ctl_struct_abs 31 0 10;
#X obj 387 161 ctl_struct_abs 32 0 0.01;
#X obj 616 64 ctl_struct_abs 33 0 10;
#X obj 659 174 ctl_struct_abs 34 0 0.01;
#X obj 438 262 ctl_struct_abs 35 0 0.01;
#X obj 701 267 ctl_struct_abs 36 0 0.01;
#X obj 487 352 ctl_struct_abs 37 0 0.01;
#X obj 750 357 ctl_struct_abs 38 0 0.01;
#N canvas 1988 201 1183 766 lfos 1;
#X obj 311 349 s ctl_data;
#X obj 483 349 s ctl_data;
#X obj 639 346 s ctl_data;
#X text 486 241 feedback matrix;
#X obj 306 443 s ctl_data;
#X obj 478 443 s ctl_data;
#X obj 634 440 s ctl_data;
#X obj 311 538 s ctl_data;
#X obj 483 538 s ctl_data;
#X obj 639 535 s ctl_data;
#X obj 815 352 s ctl_data;
#X obj 810 446 s ctl_data;
#X obj 815 541 s ctl_data;
#X obj 309 643 s ctl_data;
#X obj 481 643 s ctl_data;
#X obj 637 640 s ctl_data;
#X obj 813 646 s ctl_data;
#X text 366 260 lfo_0;
#X text 518 267 lfo_1;
#X text 645 266 lfo_2;
#X text 821 272 lfo_3;
#X text 67 -81 sync matrix;
#X obj -62 12 s ctl_data;
#X obj 66 12 s ctl_data;
#X obj -61 77 s ctl_data;
#X obj 67 77 s ctl_data;
#X obj -61 142 s ctl_data;
#X obj 67 142 s ctl_data;
#X obj 197 12 s ctl_data;
#X obj 198 77 s ctl_data;
#X obj 198 142 s ctl_data;
#X text 74 -68 masters;
#X obj 328 13 s ctl_data;
#X obj 329 78 s ctl_data;
#X obj 329 143 s ctl_data;
#X obj -53 227 s ctl_data;
#X obj 75 227 s ctl_data;
#X obj 206 227 s ctl_data;
#X obj 337 228 s ctl_data;
#X text -123 -17 lfo_0;
#X text -121 41 lfo_1;
#X text -120 104 lfo_2;
#X text -112 189 lfo_3;
#X text -30 -48 lfo_0;
#X text 94 -48 lfo_1;
#X text 221 -49 lfo_2;
#X text 352 -48 lfo_3;
#X obj -63 -34 ctl_toggle_abs 3;
#X obj 69 -32 ctl_toggle_abs 4;
#X obj 196 -33 ctl_toggle_abs 5;
#X obj 327 -32 ctl_toggle_abs 6;
#X obj -62 31 ctl_toggle_abs 7;
#X obj 67 32 ctl_toggle_abs 8;
#X obj 197 31 ctl_toggle_abs 9;
#X obj 328 32 ctl_toggle_abs 10;
#X obj -61 97 ctl_toggle_abs 11;
#X obj 68 97 ctl_toggle_abs 12;
#X obj 198 97 ctl_toggle_abs 13;
#X obj 327 98 ctl_toggle_abs 14;
#X obj -53 182 ctl_toggle_abs 15;
#X obj 76 182 ctl_toggle_abs 16;
#X obj 206 182 ctl_toggle_abs 17;
#X obj 335 181 ctl_toggle_abs 18;
#X obj 528 32 s ctl_data;
#X obj 720 40 s ctl_data;
#X obj 105 385 s ctl_data;
#X text 583 -57 omega0;
#X text 755 -42 omega1;
#X text 624 37 omega2;
#X text 804 42 omega3;
#X obj 526 131 s ctl_data;
#X obj 698 131 s ctl_data;
#X obj -63 390 s ctl_data;
#X obj 117 541 s ctl_data;
#X obj -62 544 s ctl_data;
#X text -44 297 g0;
#X text 114 287 g1;
#X text -47 451 g2;
#X text 122 453 g3;
#X obj 312 284 ctl_struct_abs 43 0 10;
#X obj 483 284 ctl_struct_abs 44 0 10;
#X obj 642 280 ctl_struct_abs 45 0 10;
#X obj 817 286 ctl_struct_abs 46 0 10;
#X obj 304 378 ctl_struct_abs 47 0 10;
#X obj 478 378 ctl_struct_abs 48 0 10;
#X obj 637 374 ctl_struct_abs 49 0 10;
#X obj 813 380 ctl_struct_abs 50 0 10;
#X obj 312 473 ctl_struct_abs 51 0 10;
#X obj 483 473 ctl_struct_abs 52 0 10;
#X obj 645 467 ctl_struct_abs 53 0 10;
#X obj 821 473 ctl_struct_abs 54 0 10;
#X obj 310 578 ctl_struct_abs 55 0 10;
#X obj 481 578 ctl_struct_abs 56 0 10;
#X obj 643 572 ctl_struct_abs 57 0 10;
#X obj 819 578 ctl_struct_abs 58 0 10;
#X obj -60 324 ctl_struct_abs 59 0 1;
#X obj 107 318 ctl_struct_abs 60 0 1;
#X obj -59 478 ctl_struct_abs 61 0 1;
#X obj 120 475 ctl_struct_abs 62 0 1;
#X obj 528 -34 ctl_struct_abs 39 0 0.01;
#X obj 720 -25 ctl_struct_abs 40 0 0.1;
#X obj 716 68 ctl_struct_abs 42 0 0.1;
#X obj 520 62 ctl_struct_abs 41 0 0.1;
#X connect 47 0 22 0;
#X connect 48 0 23 0;
#X connect 49 0 28 0;
#X connect 50 0 32 0;
#X connect 51 0 24 0;
#X connect 52 0 25 0;
#X connect 53 0 29 0;
#X connect 54 0 33 0;
#X connect 55 0 26 0;
#X connect 56 0 27 0;
#X connect 57 0 30 0;
#X connect 58 0 34 0;
#X connect 59 0 35 0;
#X connect 60 0 36 0;
#X connect 61 0 37 0;
#X connect 62 0 38 0;
#X connect 79 0 0 0;
#X connect 80 0 1 0;
#X connect 81 0 2 0;
#X connect 82 0 10 0;
#X connect 83 0 4 0;
#X connect 84 0 5 0;
#X connect 85 0 6 0;
#X connect 86 0 11 0;
#X connect 87 0 7 0;
#X connect 88 0 8 0;
#X connect 89 0 9 0;
#X connect 90 0 12 0;
#X connect 91 0 13 0;
#X connect 92 0 14 0;
#X connect 93 0 15 0;
#X connect 94 0 16 0;
#X connect 95 0 72 0;
#X connect 96 0 65 0;
#X connect 97 0 74 0;
#X connect 98 0 73 0;
#X connect 99 0 63 0;
#X connect 100 0 64 0;
#X connect 101 0 71 0;
#X connect 102 0 70 0;
#X restore -48 235 pd lfos;
#X connect 0 0 3 0;
#X connect 1 0 3 0;
#X connect 1 0 6 0;
#X connect 3 0 2 0;
#X connect 4 0 3 0;
#X connect 6 0 5 0;
#X connect 7 0 6 1;
#X connect 12 0 11 0;
#X connect 12 0 15 0;
#X connect 14 0 13 0;
#X connect 15 0 13 0;
#X connect 16 0 8 0;
#X connect 17 0 10 0;
#X connect 18 0 9 0;
#X connect 24 0 21 0;
#X connect 25 0 20 0;
#X connect 43 0 28 0;
#X connect 44 0 27 0;
#X connect 45 0 30 0;
#X connect 46 0 29 0;
#X connect 47 0 32 0;
#X connect 48 0 31 0;
#X connect 49 0 34 0;
#X connect 50 0 33 0;
