#N canvas 186 82 976 487 10;
#X msg 93 -46 connect localhost 3001;
#X obj 145 17 r ctl_data;
#X floatatom 122 70 5 0 0 0 - - -, f 5;
#X obj 122 49 netsend 1;
#X obj 472 44 s ctl_data;
#X obj 670 45 s ctl_data;
#X obj 880 38 s ctl_data;
#X msg 127 -12 disconnect;
#X obj 231 68 print;
#X obj 232 36 spigot;
#X obj 276 0 tgl 15 0 empty empty empty 17 7 0 10 -262144 -1 -1 0 1
;
#X obj 498 156 s ctl_data;
#X obj -81 183 s ctl_data;
#X obj 368 162 s ctl_data;
#X obj 117 184 s ctl_data;
#X obj 670 156 s ctl_data;
#X obj 826 153 s ctl_data;
#X obj 791 379 s ctl_data;
#X text 41 306 sync matrix;
#X obj -27 404 s ctl_data;
#X obj 101 404 s ctl_data;
#X obj -26 469 s ctl_data;
#X obj 102 469 s ctl_data;
#X obj -26 534 s ctl_data;
#X obj 102 534 s ctl_data;
#X obj 232 404 s ctl_data;
#X obj 233 469 s ctl_data;
#X obj 233 534 s ctl_data;
#X text 109 324 masters;
#X text -155 433 slaves;
#X text -88 375 osc_0;
#X text 129 344 osc_1;
#X text 256 343 osc_2;
#X text 5 344 osc_0;
#X text -86 433 osc_1;
#X text -85 496 osc_2;
#X obj 372 11 s ctl_reset;
#X obj 373 -10 bng 15 250 50 0 empty empty empty 17 7 0 10 -262144
-1 -1;
#X obj 370 55 s toggle_reset;
#X msg 314 31 1;
#X msg 348 29 0;
#X text 846 290 osc_0;
#X obj -81 116 ctl_struct_abs 0 70.7 0.01;
#X obj 117 119 ctl_struct_abs 1 70.7 0.01;
#X obj 365 101 ctl_bang_abs 2;
#X text -77 102 amp0;
#X obj 880 -27 ctl_struct_abs 5 1 10;
#X obj 832 86 ctl_struct_abs 8 0 1;
#X obj -28 358 ctl_toggle_abs 21;
#X obj 104 360 ctl_toggle_abs 22;
#X obj 231 359 ctl_toggle_abs 23;
#X obj -27 423 ctl_toggle_abs 24;
#X obj 102 424 ctl_toggle_abs 25;
#X obj 232 423 ctl_toggle_abs 26;
#X obj -26 489 ctl_toggle_abs 27;
#X obj 103 489 ctl_toggle_abs 28;
#X obj 233 489 ctl_toggle_abs 29;
#X obj 507 267 s ctl_data;
#X obj 679 267 s ctl_data;
#X obj 555 379 s ctl_data;
#X text 472 -41 sqr_flyback0;
#X text 670 -40 sqr_flyback1;
#X text 884 -45 sqr_curl0;
#X text 498 71 sqr_curl1;
#X text 670 71 sqr_gain1;
#X text 826 68 sqr_gain0;
#X text 507 182 tri_curl0;
#X text 679 182 tri_curl1;
#X text 598 291 tri_thresh0;
#X obj 670 91 ctl_struct_abs 7 50 1;
#X obj 497 92 ctl_struct_abs 6 1 1;
#X obj 472 -21 ctl_struct_abs 3 100 100;
#X obj 670 -20 ctl_struct_abs 4 100 100;
#X obj 508 202 ctl_struct_abs 9 10 0.1;
#X obj 679 202 ctl_struct_abs 10 10 0.1;
#X obj 561 312 ctl_struct_abs 11 90 0.01;
#X obj 792 314 ctl_struct_abs 12 90 0.01;
#X connect 0 0 3 0;
#X connect 1 0 3 0;
#X connect 1 0 9 0;
#X connect 3 0 2 0;
#X connect 7 0 3 0;
#X connect 9 0 8 0;
#X connect 10 0 9 1;
#X connect 37 0 36 0;
#X connect 37 0 40 0;
#X connect 39 0 38 0;
#X connect 40 0 38 0;
#X connect 42 0 12 0;
#X connect 43 0 14 0;
#X connect 44 0 13 0;
#X connect 46 0 6 0;
#X connect 47 0 16 0;
#X connect 48 0 19 0;
#X connect 49 0 20 0;
#X connect 50 0 25 0;
#X connect 51 0 21 0;
#X connect 52 0 22 0;
#X connect 53 0 26 0;
#X connect 54 0 23 0;
#X connect 55 0 24 0;
#X connect 56 0 27 0;
#X connect 69 0 15 0;
#X connect 70 0 11 0;
#X connect 71 0 4 0;
#X connect 72 0 5 0;
#X connect 73 0 57 0;
#X connect 74 0 58 0;
#X connect 75 0 59 0;
#X connect 76 0 17 0;
