#N canvas 85 82 1278 682 10;
#X msg 93 -46 connect localhost 3001;
#X obj 145 17 r ctl_data;
#X floatatom 122 70 5 0 0 0 - - -, f 5;
#X obj 122 49 netsend 1;
#X obj 472 44 s ctl_data;
#X obj 670 45 s ctl_data;
#X obj 880 38 s ctl_data;
#X msg 127 -12 disconnect;
#X obj 231 68 print;
#X obj 232 36 spigot;
#X obj 276 0 tgl 15 0 empty empty empty 17 7 0 10 -262144 -1 -1 0 1
;
#X obj 1049 28 s ctl_data;
#X obj -81 183 s ctl_data;
#X obj 368 162 s ctl_data;
#X obj 117 184 s ctl_data;
#X obj 485 153 s ctl_data;
#X obj 641 150 s ctl_data;
#X obj 1003 148 s ctl_data;
#X text -155 433 slaves;
#X obj 372 11 s ctl_reset;
#X obj 373 -10 bng 15 250 50 0 empty empty empty 17 7 0 10 -262144
-1 -1;
#X obj 370 55 s toggle_reset;
#X msg 314 31 1;
#X msg 348 29 0;
#X obj -81 116 ctl_struct_abs 0 70.7 0.01;
#X obj 117 119 ctl_struct_abs 1 70.7 0.01;
#X obj 365 101 ctl_bang_abs 2;
#X text -77 102 amp0;
#X obj 809 149 s ctl_data;
#X text 472 -41 sqr_flyback0;
#X text 670 -40 sqr_flyback1;
#X text 884 -45 sqr_curl0;
#X text 1049 -57 sqr_curl1;
#X text 852 61 tri_thresh0;
#X text 1058 59 tri_thresh1;
#X obj 485 88 ctl_struct_abs 7 50 10;
#X obj 647 83 ctl_struct_abs 8 40 10;
#X obj 472 -21 ctl_struct_abs 3 720 100;
#X obj 669 -21 ctl_struct_abs 4 720 100;
#X text 483 65 freq0;
#X text 641 65 freq1;
#X obj 880 -27 ctl_struct_abs 5 5 1;
#X obj 1048 -36 ctl_struct_abs 6 5 1;
#X obj 816 273 s ctl_data;
#X obj 580 273 s ctl_data;
#X text 623 185 skew0;
#X text 871 184 skew1;
#X obj 586 206 ctl_struct_abs 11 50 0.01;
#X obj 817 208 ctl_struct_abs 12 50 0.01;
#X obj 815 82 ctl_struct_abs 9 90 0.01;
#X obj 1004 83 ctl_struct_abs 10 90 0.01;
#X obj 524 382 s ctl_data;
#X obj 693 372 s ctl_data;
#X obj 524 317 ctl_struct_abs 13 5 1;
#X obj 693 309 ctl_struct_abs 14 5 1;
#X text 528 299 tri_curl0;
#X connect 0 0 3 0;
#X connect 1 0 3 0;
#X connect 1 0 9 0;
#X connect 3 0 2 0;
#X connect 7 0 3 0;
#X connect 9 0 8 0;
#X connect 10 0 9 1;
#X connect 20 0 19 0;
#X connect 20 0 23 0;
#X connect 22 0 21 0;
#X connect 23 0 21 0;
#X connect 24 0 12 0;
#X connect 25 0 14 0;
#X connect 26 0 13 0;
#X connect 35 0 15 0;
#X connect 36 0 16 0;
#X connect 37 0 4 0;
#X connect 38 0 5 0;
#X connect 41 0 6 0;
#X connect 42 0 11 0;
#X connect 47 0 44 0;
#X connect 48 0 43 0;
#X connect 49 0 28 0;
#X connect 50 0 17 0;
#X connect 53 0 51 0;
#X connect 54 0 52 0;
