#N canvas 1817 132 1501 835 10;
#X msg 93 -46 connect localhost 3001;
#X obj 145 17 r ctl_data;
#X floatatom 122 70 5 0 0 0 - - -, f 5;
#X obj 122 49 netsend 1;
#X obj 472 44 s ctl_data;
#X obj 670 45 s ctl_data;
#X obj 880 38 s ctl_data;
#X msg 127 -12 disconnect;
#X obj 231 68 print;
#X obj 232 36 spigot;
#X obj 276 0 tgl 15 0 empty empty empty 17 7 0 10 -262144 -1 -1 0 1
;
#X obj 1049 28 s ctl_data;
#X obj -81 183 s ctl_data;
#X obj 368 162 s ctl_data;
#X obj 117 184 s ctl_data;
#X obj 485 153 s ctl_data;
#X obj 641 150 s ctl_data;
#X obj 687 276 s ctl_data;
#X text 41 306 sync matrix;
#X obj -27 404 s ctl_data;
#X obj 101 404 s ctl_data;
#X text 109 324 masters;
#X text -155 433 slaves;
#X text -88 375 osc_0;
#X text 129 344 osc_1;
#X text 5 344 osc_0;
#X text -86 433 osc_1;
#X obj 372 11 s ctl_reset;
#X obj 373 -10 bng 15 250 50 0 empty empty empty 17 7 0 10 -262144
-1 -1;
#X obj 370 55 s toggle_reset;
#X msg 314 31 1;
#X msg 348 29 0;
#X obj -81 116 ctl_struct_abs 0 70.7 0.01;
#X obj 117 119 ctl_struct_abs 1 70.7 0.01;
#X obj 365 101 ctl_bang_abs 2;
#X text -77 102 amp0;
#X obj 851 163 s ctl_data;
#X obj 1023 163 s ctl_data;
#X obj 451 276 s ctl_data;
#X text 472 -41 sqr_flyback0;
#X text 670 -40 sqr_flyback1;
#X text 884 -45 sqr_curl0;
#X text 1049 -57 sqr_curl1;
#X text 485 68 sqr_gain1;
#X text 641 65 sqr_gain0;
#X text 851 78 tri_curl0;
#X text 1023 78 tri_curl1;
#X text 494 188 tri_thresh0;
#X text 742 187 tri_thresh1;
#X obj 773 562 s ctl_data;
#X obj 579 446 s ctl_data;
#X obj 751 446 s ctl_data;
#X obj 578 565 s ctl_data;
#X text 674 326 feedback matrix;
#X text 579 361 osc0;
#X text 751 361 osc1;
#X text 494 443 osc0;
#X text 510 519 osc1;
#X obj -28 358 ctl_toggle_abs 17;
#X obj 104 360 ctl_toggle_abs 18;
#X obj -25 421 ctl_toggle_abs 19;
#X obj 102 424 ctl_toggle_abs 20;
#X obj 485 88 ctl_struct_abs 7 50 10;
#X obj 647 83 ctl_struct_abs 8 40 10;
#X obj 1048 -36 ctl_struct_abs 6 500 1;
#X obj 880 -27 ctl_struct_abs 5 500 1;
#X obj 852 98 ctl_struct_abs 9 500 1;
#X obj 1023 98 ctl_struct_abs 10 500 1;
#X obj 472 -21 ctl_struct_abs 3 720 100;
#X obj 669 -21 ctl_struct_abs 4 720 100;
#X obj 457 209 ctl_struct_abs 11 60 0.01;
#X obj 688 211 ctl_struct_abs 12 60 0.01;
#X obj 751 381 ctl_struct_abs 14 0 1;
#X obj 580 381 ctl_struct_abs 13 0 1;
#X obj 584 498 ctl_struct_abs 15 0 1;
#X obj 773 496 ctl_struct_abs 16 0 1;
#X obj -24 477 s ctl_data;
#X obj 104 477 s ctl_data;
#X connect 0 0 3 0;
#X connect 1 0 3 0;
#X connect 1 0 9 0;
#X connect 3 0 2 0;
#X connect 7 0 3 0;
#X connect 9 0 8 0;
#X connect 10 0 9 1;
#X connect 28 0 27 0;
#X connect 28 0 31 0;
#X connect 30 0 29 0;
#X connect 31 0 29 0;
#X connect 32 0 12 0;
#X connect 33 0 14 0;
#X connect 34 0 13 0;
#X connect 58 0 19 0;
#X connect 59 0 20 0;
#X connect 60 0 76 0;
#X connect 61 0 77 0;
#X connect 62 0 15 0;
#X connect 63 0 16 0;
#X connect 64 0 11 0;
#X connect 65 0 6 0;
#X connect 66 0 36 0;
#X connect 67 0 37 0;
#X connect 68 0 4 0;
#X connect 69 0 5 0;
#X connect 70 0 38 0;
#X connect 71 0 17 0;
#X connect 72 0 51 0;
#X connect 73 0 50 0;
#X connect 74 0 52 0;
#X connect 75 0 49 0;
