#N canvas 435 86 774 660 10;
#X msg 69 22 \; pd dsp 1;
#X msg 66 64 \; pd dsp 0;
#X obj 70 401 bang~;
#X obj 49 463 snapshot~;
#X floatatom 49 494 5 0 0 0 - - -, f 5;
#X msg 65 335 tl_list_ctl;
#X floatatom 134 104 5 0.01 10000 0 - - -, f 5;
#X msg 132 124 tl 2 \$1;
#X obj 57 378 r tl_ctl;
#X obj 132 146 s tl_ctl;
#X obj 444 421 bang~;
#X obj 404 446 snapshot~;
#X floatatom 404 477 5 0 0 0 - - -, f 5;
#X obj 252 10 loadbang;
#X floatatom 214 106 5 0 0 0 - - -, f 5;
#X obj 212 148 s tl_ctl;
#X floatatom 290 107 5 0 0 0 - - -, f 5;
#X obj 288 149 s tl_ctl;
#X floatatom 370 109 5 0 0 0 - - -, f 5;
#X obj 368 151 s tl_ctl;
#X floatatom 214 187 5 0 0 0 - - -, f 5;
#X obj 211 251 s tl_ctl;
#X floatatom 291 189 5 0 0 0 - - -, f 5;
#X obj 291 253 s tl_ctl;
#X floatatom 366 190 5 0 0 0 - - -, f 5;
#X obj 366 254 s tl_ctl;
#X obj 447 250 s tl_ctl;
#X obj 446 197 bng 15 250 50 0 empty empty empty 17 7 0 10 -262144
-1 -1;
#X msg 212 126 tl 3 \$1;
#X msg 288 127 tl 4 \$1;
#X msg 368 129 tl 5 \$1;
#X obj 211 206 * 0.01;
#X obj 291 208 * 0.01;
#X obj 366 209 * 0.01;
#X msg 283 34 1;
#X obj 352 73 /;
#X obj 299 76 t b f;
#X floatatom 284 57 5 0 0 0 - - -, f 5;
#X msg 350 603 open ./chua_y.wav;
#X msg 122 580 open ./chua_x.wav;
#X msg 192 482 start;
#X msg 248 484 stop;
#X obj 533 257 s rec;
#X obj 547 201 bng 15 250 50 0 empty empty empty 17 7 0 10 -262144
-1 -1;
#X obj 481 183 r rec;
#X obj 245 435 r rec;
#X obj 109 524 writesf~ 1;
#X obj 125 547 r start_rec;
#X obj 349 567 r start_rec;
#X obj 547 221 t b b;
#X obj 586 258 s start_rec;
#X obj 338 539 writesf~ 1;
#X msg 211 229 tl 8 \$1;
#X msg 291 231 tl 9 \$1;
#X msg 366 232 tl 10 \$1;
#X msg 447 228 tl 11 1;
#X floatatom 462 112 5 0 0 0 - - -, f 5;
#X obj 460 154 s tl_ctl;
#X floatatom 542 114 5 0 0 0 - - -, f 5;
#X obj 540 156 s tl_ctl;
#X msg 460 132 tl 6 \$1;
#X msg 540 134 tl 7 \$1;
#X obj 473 17 loadbang;
#X obj 151 47 loadbang;
#X msg 122 580 open ./chua_x.wav;
#X obj 109 524 writesf~ 1;
#X obj 125 547 r start_rec;
#X obj 288 436 delwrite~ fb1;
#X obj 245 457 del 20000;
#X obj 101 277 phasor~;
#X floatatom 101 223 5 0 0 0 - - -, f 5;
#X obj 101 299 *~;
#X floatatom 326 310 5 0 0 0 - - -, f 5;
#X msg 326 351 \$1 40;
#X obj 326 373 line~;
#X floatatom 167 238 5 0 0 0 - - -, f 5;
#X obj 167 257 * 0.01;
#X msg 167 279 \$1 40;
#X obj 167 301 line~;
#X obj 145 425 delwrite~ fb0 500;
#X obj 201 360 *~;
#X obj 326 329 * 1;
#X obj 228 308 sig~;
#X obj 201 338 vd~ fb0;
#X obj 103 498 clip~ -0.8 0.8;
#X msg 677 165 44100;
#X floatatom 677 187 5 0 0 0 - - -, f 5;
#X obj 672 247 /;
#X msg 726 210 64;
#X floatatom 672 269 5 0 0 0 - - -, f 5;
#X obj 688 52 block~ 1;
#X obj 241 543 outlet~;
#X obj 535 551 r start_rec;
#X obj 524 523 writesf~ 1;
#X msg 536 587 open ./chua_z.wav;
#X obj 306 488 bng 15 250 50 0 empty empty empty 17 7 0 10 -262144
-1 -1;
#X obj 140 395 timelab~ /home/dmedine/timelab-0.10/modules/chua2.tl
;
#X msg 134 78 1;
#X msg 214 80 1;
#X msg 422 47 1;
#X msg 537 46 1;
#X obj 417 321 /;
#X floatatom 459 276 5 0 0 0 - - -, f 5;
#X obj 469 308 t b f;
#X floatatom 417 366 5 0 0 0 - - -, f 5;
#X msg 413 290 1000;
#X obj 531 290 / 6.28;
#X floatatom 531 312 5 0 0 0 - - -, f 5;
#X connect 2 0 3 0;
#X connect 3 0 4 0;
#X connect 5 0 96 0;
#X connect 6 0 7 0;
#X connect 7 0 9 0;
#X connect 8 0 96 0;
#X connect 10 0 11 0;
#X connect 11 0 12 0;
#X connect 13 0 34 0;
#X connect 14 0 28 0;
#X connect 16 0 29 0;
#X connect 16 0 36 0;
#X connect 18 0 30 0;
#X connect 20 0 31 0;
#X connect 22 0 32 0;
#X connect 24 0 33 0;
#X connect 27 0 55 0;
#X connect 28 0 15 0;
#X connect 29 0 17 0;
#X connect 30 0 19 0;
#X connect 31 0 52 0;
#X connect 32 0 53 0;
#X connect 33 0 54 0;
#X connect 34 0 16 0;
#X connect 34 0 18 0;
#X connect 34 0 37 0;
#X connect 35 0 18 0;
#X connect 36 0 35 0;
#X connect 36 1 35 1;
#X connect 37 0 35 0;
#X connect 38 0 51 0;
#X connect 39 0 46 0;
#X connect 40 0 46 0;
#X connect 40 0 51 0;
#X connect 40 0 93 0;
#X connect 41 0 46 0;
#X connect 41 0 51 0;
#X connect 41 0 93 0;
#X connect 43 0 49 0;
#X connect 44 0 27 0;
#X connect 45 0 40 0;
#X connect 45 0 68 0;
#X connect 47 0 39 0;
#X connect 48 0 38 0;
#X connect 49 0 42 0;
#X connect 49 1 50 0;
#X connect 52 0 21 0;
#X connect 53 0 23 0;
#X connect 54 0 25 0;
#X connect 55 0 26 0;
#X connect 56 0 60 0;
#X connect 58 0 61 0;
#X connect 60 0 57 0;
#X connect 61 0 59 0;
#X connect 62 0 99 0;
#X connect 62 0 100 0;
#X connect 63 0 97 0;
#X connect 63 0 98 0;
#X connect 64 0 65 0;
#X connect 66 0 64 0;
#X connect 68 0 41 0;
#X connect 68 0 95 0;
#X connect 69 0 71 0;
#X connect 70 0 69 0;
#X connect 71 0 96 0;
#X connect 72 0 81 0;
#X connect 73 0 74 0;
#X connect 74 0 80 1;
#X connect 75 0 76 0;
#X connect 76 0 77 0;
#X connect 77 0 78 0;
#X connect 78 0 71 1;
#X connect 80 0 96 0;
#X connect 81 0 73 0;
#X connect 82 0 83 0;
#X connect 83 0 80 0;
#X connect 84 0 91 0;
#X connect 85 0 86 0;
#X connect 86 0 87 0;
#X connect 87 0 89 0;
#X connect 88 0 87 1;
#X connect 92 0 94 0;
#X connect 94 0 93 0;
#X connect 96 0 3 0;
#X connect 96 0 79 0;
#X connect 96 0 84 0;
#X connect 96 0 46 0;
#X connect 96 1 51 0;
#X connect 96 1 93 0;
#X connect 97 0 6 0;
#X connect 98 0 14 0;
#X connect 99 0 56 0;
#X connect 100 0 58 0;
#X connect 101 0 104 0;
#X connect 102 0 103 0;
#X connect 102 0 106 0;
#X connect 103 0 105 0;
#X connect 103 1 101 1;
#X connect 104 0 82 0;
#X connect 105 0 101 0;
#X connect 106 0 107 0;
