#N canvas 1 76 1351 688 10;
#X msg 4 5 \; pd dsp 1;
#X msg 4 45 \; pd dsp 0;
#X obj -213 339 bang~;
#X obj -150 342 snapshot~;
#X floatatom -46 365 5 0 0 0 - - -, f 5;
#X msg -33 214 tl_list_ctl;
#X floatatom 149 71 5 0 0 0 - - -, f 5;
#X obj -256 391 dft_analysis;
#X obj 82 390 dac~;
#X obj -49 312 *~ 0.2;
#X msg 156 49 440;
#X obj -201 254 timelab~ /home/dmedine/programming/c_code/timelab-0.10/modules/fm.tl
;
#X msg 149 116 tl 2 \$1;
#X obj 149 90 * 6.28;
#X obj 62 441 dft_analysis;
#X obj 181 302 bang~;
#X obj 184 342 snapshot~;
#X floatatom 214 383 5 0 0 0 - - -, f 5;
#X obj 72 315 *~ 0.2;
#X msg -178 101 tl 14 1;
#X obj 104 195 r tl_ctl;
#X obj 149 138 s tl_ctl;
#X floatatom 240 72 5 0 0 0 - - -, f 5;
#X obj 240 139 s tl_ctl;
#X floatatom 421 75 5 0 0 0 - - -, f 5;
#X obj 421 142 s tl_ctl;
#X obj 421 94 * 10;
#X msg 420 47 0;
#X floatatom 533 74 5 0 0 0 - - -, f 5;
#X obj 533 141 s tl_ctl;
#X obj 533 93 * 10;
#X msg 533 48 0;
#X obj 240 91 * 0.01;
#X msg 240 117 tl 3 \$1;
#X msg 240 46 90;
#X msg 421 120 tl 6 \$1;
#X msg 533 119 tl 7 \$1;
#X floatatom 307 75 5 0 0 0 - - -, f 5;
#X obj 307 139 s tl_ctl;
#X msg 307 49 1;
#X floatatom 361 330 5 0 0 0 - - -, f 5;
#X msg 368 308 440;
#X obj 361 349 * 6.28;
#X obj 361 397 s tl_ctl;
#X floatatom 452 331 5 0 0 0 - - -, f 5;
#X obj 452 398 s tl_ctl;
#X floatatom 647 328 5 0 0 0 - - -, f 5;
#X obj 647 395 s tl_ctl;
#X obj 647 347 * 10;
#X msg 646 300 0;
#X floatatom 762 334 5 0 0 0 - - -, f 5;
#X obj 762 401 s tl_ctl;
#X obj 762 353 * 10;
#X msg 762 308 0;
#X obj 452 350 * 0.01;
#X msg 452 305 90;
#X floatatom 519 334 5 0 0 0 - - -, f 5;
#X obj 519 398 s tl_ctl;
#X msg 519 308 1;
#X msg 361 375 tl 8 \$1;
#X msg 452 376 tl 9 \$1;
#X msg 307 117 tl 5 \$1;
#X msg 517 374 tl 11 \$1;
#X msg 647 373 tl 12 \$1;
#X msg 762 379 tl 13 \$1;
#X text 310 12 osc 1 ctls;
#X text 471 258 osc 2 ctls;
#X text 143 172 freq;
#X text 239 172 thresh;
#X text 300 174 sync gain;
#X text 539 175 mod depth from 2;
#X text 415 174 mod depth from 1;
#X text 365 421 freq;
#X text 461 421 thresh;
#X text 522 423 sync gain;
#X text 749 420 mod depth from 2;
#X text 624 419 mod depth from 1;
#X obj 748 5 bng 15 250 50 0 empty empty empty 17 7 0 10 -262144 -1
-1;
#X obj 748 39 on-off;
#X obj 715 106 s tl_ctl;
#X text 755 19 1 syncs 1;
#X obj 458 455 bng 15 250 50 0 empty empty empty 17 7 0 10 -262144
-1 -1;
#X obj 458 489 on-off;
#X obj 425 556 s tl_ctl;
#X obj 793 104 bng 15 250 50 0 empty empty empty 17 7 0 10 -262144
-1 -1;
#X obj 793 138 on-off;
#X obj 760 205 s tl_ctl;
#X obj 543 496 bng 15 250 50 0 empty empty empty 17 7 0 10 -262144
-1 -1;
#X obj 543 530 on-off;
#X obj 510 597 s tl_ctl;
#X text 465 469 1 syncs 2;
#X text 800 118 2 syncs 1;
#X text 550 510 2 syncs 2;
#X msg 715 84 tl 15;
#X msg 425 534 tl 16;
#X msg 760 183 tl 17;
#X msg 510 575 tl 18;
#X msg 934 33 2000;
#X obj 953 132 s freq1;
#X msg 886 33 200;
#X msg 983 34 1000;
#X msg 1031 34 10000;
#X msg 891 73 400;
#X msg 939 73 600;
#X msg 988 74 2500;
#X msg 1036 74 5000;
#X msg 918 288 2000;
#X msg 870 288 200;
#X msg 967 289 1000;
#X msg 1015 289 10000;
#X msg 875 328 400;
#X msg 923 328 600;
#X msg 972 329 2500;
#X msg 1020 329 5000;
#X obj 937 387 s freq2;
#X obj 99 40 r freq1;
#X obj 307 293 r freq2;
#X obj -192 48 loadbang;
#X obj -94 91 s lbang;
#X obj 155 6 r lbang;
#X obj -120 32 bng 15 250 50 0 empty empty empty 17 7 0 10 -262144
-1 -1;
#X obj -120 52 t b b;
#X obj 367 265 r lbang;
#X obj -49 334 hip~ 40;
#X obj 72 337 hip~ 40;
#X connect 2 0 3 0;
#X connect 2 0 7 1;
#X connect 3 0 4 0;
#X connect 5 0 11 0;
#X connect 6 0 13 0;
#X connect 9 0 123 0;
#X connect 10 0 6 0;
#X connect 11 0 3 0;
#X connect 11 0 7 0;
#X connect 11 0 9 0;
#X connect 11 2 14 0;
#X connect 11 2 16 0;
#X connect 11 2 18 0;
#X connect 12 0 21 0;
#X connect 13 0 12 0;
#X connect 15 0 16 0;
#X connect 15 0 14 1;
#X connect 16 0 17 0;
#X connect 18 0 124 0;
#X connect 19 0 11 0;
#X connect 20 0 11 0;
#X connect 22 0 32 0;
#X connect 24 0 26 0;
#X connect 26 0 35 0;
#X connect 27 0 24 0;
#X connect 28 0 30 0;
#X connect 30 0 36 0;
#X connect 31 0 28 0;
#X connect 32 0 33 0;
#X connect 33 0 23 0;
#X connect 34 0 22 0;
#X connect 35 0 25 0;
#X connect 36 0 29 0;
#X connect 37 0 61 0;
#X connect 39 0 37 0;
#X connect 40 0 42 0;
#X connect 41 0 40 0;
#X connect 42 0 59 0;
#X connect 44 0 54 0;
#X connect 46 0 48 0;
#X connect 48 0 63 0;
#X connect 49 0 46 0;
#X connect 50 0 52 0;
#X connect 52 0 64 0;
#X connect 53 0 50 0;
#X connect 54 0 60 0;
#X connect 55 0 44 0;
#X connect 56 0 62 0;
#X connect 58 0 56 0;
#X connect 59 0 43 0;
#X connect 60 0 45 0;
#X connect 61 0 38 0;
#X connect 62 0 57 0;
#X connect 63 0 47 0;
#X connect 64 0 51 0;
#X connect 77 0 78 0;
#X connect 77 0 93 0;
#X connect 81 0 82 0;
#X connect 81 0 94 0;
#X connect 84 0 85 0;
#X connect 84 0 95 0;
#X connect 87 0 88 0;
#X connect 87 0 96 0;
#X connect 93 0 79 0;
#X connect 94 0 83 0;
#X connect 95 0 86 0;
#X connect 96 0 89 0;
#X connect 97 0 98 0;
#X connect 99 0 98 0;
#X connect 100 0 98 0;
#X connect 101 0 98 0;
#X connect 102 0 98 0;
#X connect 103 0 98 0;
#X connect 104 0 98 0;
#X connect 105 0 98 0;
#X connect 106 0 114 0;
#X connect 107 0 114 0;
#X connect 108 0 114 0;
#X connect 109 0 114 0;
#X connect 110 0 114 0;
#X connect 111 0 114 0;
#X connect 112 0 114 0;
#X connect 113 0 114 0;
#X connect 115 0 6 0;
#X connect 116 0 40 0;
#X connect 117 0 118 0;
#X connect 119 0 10 0;
#X connect 119 0 34 0;
#X connect 119 0 27 0;
#X connect 119 0 31 0;
#X connect 119 0 39 0;
#X connect 120 0 121 0;
#X connect 121 0 19 0;
#X connect 121 1 118 0;
#X connect 122 0 41 0;
#X connect 122 0 55 0;
#X connect 122 0 49 0;
#X connect 122 0 53 0;
#X connect 122 0 58 0;
#X connect 123 0 8 0;
#X connect 124 0 8 1;
