#N canvas 386 100 735 581 10;
#X msg 388 32 \; pd dsp 1;
#X msg 491 33 \; pd dsp 0;
#X obj 75 335 bang~;
#X obj 69 358 snapshot~;
#X floatatom 68 406 5 0 0 0 - - -, f 5;
#X obj 504 304 bang~;
#X obj 498 327 snapshot~;
#X floatatom 497 375 5 0 0 0 - - -, f 5;
#X msg 167 114 tl_list_ctl;
#X floatatom 306 105 5 0 0 0 - - -, f 5;
#X obj 247 26 loadbang;
#X obj 156 389 dft_analysis;
#X obj 310 315 dac~;
#X obj 229 315 *~ 0.2;
#X msg 313 83 440;
#X obj 84 233 timelab~ /home/dmedine/programming/c_code/timelab-0.10/modules/fm.tl
;
#X msg 59 84 tl 7 1;
#X msg 296 158 tl 2 \$1;
#X obj 306 124 * 6.28;
#X floatatom 385 109 5 0 0 0 - - -, f 5;
#X msg 392 87 0;
#X msg 375 162 tl 5 \$1;
#X connect 2 0 3 0;
#X connect 2 0 11 1;
#X connect 3 0 4 0;
#X connect 5 0 6 0;
#X connect 6 0 7 0;
#X connect 8 0 15 0;
#X connect 9 0 18 0;
#X connect 10 0 14 0;
#X connect 10 0 20 0;
#X connect 13 0 12 0;
#X connect 14 0 9 0;
#X connect 15 0 3 0;
#X connect 15 0 11 0;
#X connect 15 0 13 0;
#X connect 15 1 6 0;
#X connect 16 0 15 0;
#X connect 17 0 15 0;
#X connect 18 0 17 0;
#X connect 19 0 21 0;
#X connect 20 0 19 0;
#X connect 21 0 15 0;
