#N canvas 226 83 1125 680 10;
#X msg 4 5 \; pd dsp 1;
#X msg 4 45 \; pd dsp 0;
#X obj -213 339 bang~;
#X obj -150 342 snapshot~;
#X floatatom -46 365 5 0 0 0 - - -, f 5;
#X msg -33 214 tl_list_ctl;
#X floatatom 149 71 5 0 0 0 - - -, f 5;
#X obj 82 390 dac~;
#X msg 156 49 440;
#X msg 149 116 tl 2 \$1;
#X obj 149 90 * 6.28;
#X obj 181 302 bang~;
#X obj 184 342 snapshot~;
#X floatatom 214 383 5 0 0 0 - - -, f 5;
#X msg -178 101 tl 14 1;
#X obj 104 195 r tl_ctl;
#X obj 149 138 s tl_ctl;
#X floatatom 240 72 5 0 0 0 - - -, f 5;
#X obj 240 139 s tl_ctl;
#X floatatom 386 78 5 0 0 0 - - -, f 5;
#X obj 386 145 s tl_ctl;
#X obj 386 97 * 10;
#X msg 385 50 0;
#X floatatom 498 77 5 0 0 0 - - -, f 5;
#X obj 498 144 s tl_ctl;
#X obj 498 96 * 10;
#X msg 498 51 0;
#X obj 240 91 * 0.01;
#X msg 240 117 tl 3 \$1;
#X msg 240 46 90;
#X floatatom 307 75 5 0 0 0 - - -, f 5;
#X obj 307 139 s tl_ctl;
#X msg 307 49 1;
#X floatatom 361 330 5 0 0 0 - - -, f 5;
#X msg 368 308 440;
#X obj 361 349 * 6.28;
#X obj 361 397 s tl_ctl;
#X floatatom 452 331 5 0 0 0 - - -, f 5;
#X obj 452 398 s tl_ctl;
#X floatatom 617 335 5 0 0 0 - - -, f 5;
#X obj 617 402 s tl_ctl;
#X obj 617 354 * 10;
#X msg 616 307 0;
#X floatatom 732 341 5 0 0 0 - - -, f 5;
#X obj 732 408 s tl_ctl;
#X obj 732 360 * 10;
#X msg 732 315 0;
#X obj 452 350 * 0.01;
#X msg 452 305 90;
#X floatatom 519 334 5 0 0 0 - - -, f 5;
#X obj 519 398 s tl_ctl;
#X msg 519 308 1;
#X msg 307 117 tl 5 \$1;
#X text 310 12 osc 1 ctls;
#X text 471 258 osc 2 ctls;
#X text 143 172 freq;
#X text 239 172 thresh;
#X text 300 174 sync gain;
#X text 504 178 mod depth from 2;
#X text 380 177 mod depth from 1;
#X text 365 421 freq;
#X text 461 421 thresh;
#X text 522 423 sync gain;
#X text 719 427 mod depth from 2;
#X text 594 426 mod depth from 1;
#X obj 447 457 bng 15 250 50 0 empty empty empty 17 7 0 10 -262144
-1 -1;
#X obj 447 491 on-off;
#X obj 414 558 s tl_ctl;
#X text 454 471 1 syncs 1;
#X obj 719 488 bng 15 250 50 0 empty empty empty 17 7 0 10 -262144
-1 -1;
#X obj 719 522 on-off;
#X obj 686 589 s tl_ctl;
#X obj 492 556 bng 15 250 50 0 empty empty empty 17 7 0 10 -262144
-1 -1;
#X obj 492 590 on-off;
#X obj 459 657 s tl_ctl;
#X obj 804 529 bng 15 250 50 0 empty empty empty 17 7 0 10 -262144
-1 -1;
#X obj 804 563 on-off;
#X obj 771 630 s tl_ctl;
#X text 726 502 1 syncs 2;
#X text 499 570 2 syncs 1;
#X text 811 543 2 syncs 2;
#X msg 934 33 2000;
#X obj 953 132 s freq1;
#X msg 886 33 200;
#X msg 983 34 1000;
#X msg 1031 34 10000;
#X msg 891 73 400;
#X msg 939 73 600;
#X msg 988 74 2500;
#X msg 1036 74 5000;
#X msg 977 168 2000;
#X msg 929 168 200;
#X msg 1026 169 1000;
#X msg 1074 169 10000;
#X msg 934 208 400;
#X msg 982 208 600;
#X msg 1031 209 2500;
#X msg 1079 209 5000;
#X obj 996 267 s freq2;
#X obj 99 40 r freq1;
#X obj 307 293 r freq2;
#X obj -192 48 loadbang;
#X obj -94 91 s lbang;
#X obj 155 6 r lbang;
#X obj -120 32 bng 15 250 50 0 empty empty empty 17 7 0 10 -262144
-1 -1;
#X obj -120 52 t b b;
#X obj 367 265 r lbang;
#X obj -49 334 hip~ 40;
#X obj 72 337 hip~ 40;
#X obj -49 311 *~ 0.5;
#X obj 72 315 *~ 0.5;
#X obj -205 404 *~;
#X obj 118 408 *~;
#X obj -134 380 loadbang;
#X msg -134 402 1;
#X floatatom -134 424 5 0 0 0 - - -, f 5;
#X obj -247 448 dft_analysis;
#X obj 62 441 dft_analysis;
#X obj -69 148 bng 15 250 50 0 empty empty empty 17 7 0 10 -262144
-1 -1;
#X obj -68 191 s tl_ctl;
#X text -43 148 reset;
#X floatatom 727 84 5 0 0 0 - - -, f 5;
#X obj 727 151 s tl_ctl;
#X msg 727 58 0;
#X floatatom 630 78 5 0 0 0 - - -, f 5;
#X obj 630 142 s tl_ctl;
#X obj 651 12 r lbang;
#X msg 630 52 0;
#X msg 630 120 tl 6 \$1;
#X floatatom 962 358 5 0 0 0 - - -, f 5;
#X obj 962 425 s tl_ctl;
#X msg 962 332 0;
#X floatatom 865 351 5 0 0 0 - - -, f 5;
#X obj 865 415 s tl_ctl;
#X obj 886 285 r lbang;
#X msg 865 325 0;
#X floatatom 786 81 5 0 0 0 - - -, f 5;
#X obj 786 148 s tl_ctl;
#X msg 786 55 0;
#X text 713 174 gamma from 1;
#X text 794 193 gamma from 2;
#X text 970 459 gamma from 1;
#X floatatom 1028 326 5 0 0 0 - - -, f 5;
#X obj 1028 393 s tl_ctl;
#X msg 996 303 0;
#X text 1037 427 gamma from 2;
#X obj 72 359 clip~ -0.9 0.9;
#X obj -201 254 timelab~ /home/dmedine/timelab-0.10/modules/fm_vdp.tl
;
#X text 623 177 mu 1;
#X text 859 450 mu 2;
#X msg 727 129 tl 9 \$1;
#X msg 786 126 tl 10 \$1;
#X msg -68 169 tl 20 1;
#X msg 414 536 tl 21;
#X msg 459 635 tl 22;
#X msg 685 568 tl 23;
#X msg 771 608 tl 24;
#X msg 361 375 tl 11 \$1;
#X msg 452 377 tl 12 \$1;
#X msg 517 374 tl 14 \$1;
#X msg 865 394 tl 15 \$1;
#X msg 387 123 tl 7 \$1;
#X msg 498 122 tl 8 \$1;
#X msg 617 380 tl 16 \$1;
#X msg 732 386 tl 17 \$1;
#X msg 962 403 tl 18 \$1;
#X msg 1028 371 tl 19 \$1;
#X connect 2 0 3 0;
#X connect 2 0 116 1;
#X connect 3 0 4 0;
#X connect 5 0 147 0;
#X connect 6 0 10 0;
#X connect 8 0 6 0;
#X connect 9 0 16 0;
#X connect 10 0 9 0;
#X connect 11 0 12 0;
#X connect 11 0 117 1;
#X connect 12 0 13 0;
#X connect 14 0 147 0;
#X connect 15 0 147 0;
#X connect 17 0 27 0;
#X connect 19 0 21 0;
#X connect 21 0 161 0;
#X connect 22 0 19 0;
#X connect 23 0 25 0;
#X connect 25 0 162 0;
#X connect 26 0 23 0;
#X connect 27 0 28 0;
#X connect 28 0 18 0;
#X connect 29 0 17 0;
#X connect 30 0 52 0;
#X connect 32 0 30 0;
#X connect 33 0 35 0;
#X connect 34 0 33 0;
#X connect 35 0 157 0;
#X connect 37 0 47 0;
#X connect 39 0 41 0;
#X connect 41 0 163 0;
#X connect 42 0 39 0;
#X connect 43 0 45 0;
#X connect 45 0 164 0;
#X connect 46 0 43 0;
#X connect 47 0 158 0;
#X connect 48 0 37 0;
#X connect 49 0 159 0;
#X connect 51 0 49 0;
#X connect 52 0 31 0;
#X connect 65 0 66 0;
#X connect 65 0 153 0;
#X connect 69 0 70 0;
#X connect 69 0 155 0;
#X connect 72 0 73 0;
#X connect 72 0 154 0;
#X connect 75 0 76 0;
#X connect 75 0 156 0;
#X connect 81 0 82 0;
#X connect 83 0 82 0;
#X connect 84 0 82 0;
#X connect 85 0 82 0;
#X connect 86 0 82 0;
#X connect 87 0 82 0;
#X connect 88 0 82 0;
#X connect 89 0 82 0;
#X connect 90 0 98 0;
#X connect 91 0 98 0;
#X connect 92 0 98 0;
#X connect 93 0 98 0;
#X connect 94 0 98 0;
#X connect 95 0 98 0;
#X connect 96 0 98 0;
#X connect 97 0 98 0;
#X connect 99 0 6 0;
#X connect 100 0 33 0;
#X connect 101 0 102 0;
#X connect 103 0 8 0;
#X connect 103 0 29 0;
#X connect 103 0 22 0;
#X connect 103 0 26 0;
#X connect 103 0 32 0;
#X connect 104 0 105 0;
#X connect 105 0 14 0;
#X connect 105 1 102 0;
#X connect 106 0 34 0;
#X connect 106 0 48 0;
#X connect 106 0 42 0;
#X connect 106 0 46 0;
#X connect 106 0 51 0;
#X connect 108 0 146 0;
#X connect 109 0 107 0;
#X connect 110 0 108 0;
#X connect 111 0 116 0;
#X connect 112 0 117 0;
#X connect 113 0 114 0;
#X connect 114 0 115 0;
#X connect 115 0 111 1;
#X connect 115 0 112 1;
#X connect 118 0 152 0;
#X connect 121 0 150 0;
#X connect 123 0 121 0;
#X connect 124 0 128 0;
#X connect 126 0 123 0;
#X connect 126 0 127 0;
#X connect 126 0 138 0;
#X connect 127 0 124 0;
#X connect 128 0 125 0;
#X connect 129 0 165 0;
#X connect 131 0 129 0;
#X connect 132 0 160 0;
#X connect 134 0 131 0;
#X connect 134 0 135 0;
#X connect 134 0 144 0;
#X connect 135 0 132 0;
#X connect 136 0 151 0;
#X connect 138 0 136 0;
#X connect 142 0 166 0;
#X connect 144 0 142 0;
#X connect 146 0 7 1;
#X connect 147 0 111 0;
#X connect 147 0 3 0;
#X connect 147 0 109 0;
#X connect 147 2 110 0;
#X connect 147 2 12 0;
#X connect 147 2 112 0;
#X connect 150 0 122 0;
#X connect 151 0 137 0;
#X connect 152 0 119 0;
#X connect 153 0 67 0;
#X connect 154 0 74 0;
#X connect 155 0 71 0;
#X connect 156 0 77 0;
#X connect 157 0 36 0;
#X connect 158 0 38 0;
#X connect 159 0 50 0;
#X connect 160 0 133 0;
#X connect 161 0 20 0;
#X connect 162 0 24 0;
#X connect 163 0 40 0;
#X connect 164 0 44 0;
#X connect 165 0 130 0;
#X connect 166 0 143 0;
