#N canvas 246 102 1351 688 10;
#X msg 5 18 \; pd dsp 1;
#X msg 2 60 \; pd dsp 0;
#X obj 75 335 bang~;
#X obj 43 372 snapshot~;
#X floatatom 38 409 5 0 0 0 - - -, f 5;
#X msg -16 216 tl_list_ctl;
#X obj 156 389 dft_analysis;
#X obj 164 338 dac~;
#X obj 27 156 noise~;
#X obj 85 183 *~;
#X obj 104 155 line~;
#X obj 166 291 hip~ 40;
#X obj 166 317 *~ 0.5;
#X msg 104 108 \$1 40;
#X obj 98 68 tgl 15 0 empty empty empty 17 7 0 10 -262144 -1 -1 0 1
;
#X obj 119 204 r tl_ctl;
#X obj 23 244 timelab~ /home/dmedine/programming/c_code/timelab-0.10/modules/moog_abuse.tl
;
#X obj 478 509 loadbang;
#X msg 480 538 440;
#X floatatom 482 568 5 0 0 0 - - -, f 5;
#X obj 479 615 s gco;
#X obj 564 515 loadbang;
#X floatatom 568 574 5 0 0 0 - - -, f 5;
#X msg 566 544 10;
#X obj 565 621 s sat;
#X msg 188 173 tl 26 1;
#X obj 490 59 moog_abuse_ctls_master 2;
#X obj 751 64 moog_abuse_ctls_master 10;
#X obj 500 229 moog_abuse_ctls_master 18;
#X obj 759 234 moog_abuse_ctls_master 26;
#X obj 616 429 moog_abuse_ctls_master 34;
#X obj 889 401 moog_abuse_ctls_master 42;
#X connect 2 0 3 0;
#X connect 2 0 6 1;
#X connect 3 0 4 0;
#X connect 5 0 16 0;
#X connect 8 0 9 0;
#X connect 9 0 16 0;
#X connect 10 0 9 1;
#X connect 11 0 12 0;
#X connect 12 0 7 0;
#X connect 13 0 10 0;
#X connect 14 0 13 0;
#X connect 15 0 16 0;
#X connect 16 0 3 0;
#X connect 16 0 6 0;
#X connect 16 0 11 0;
#X connect 17 0 18 0;
#X connect 17 0 18 0;
#X connect 18 0 19 0;
#X connect 19 0 20 0;
#X connect 21 0 23 0;
#X connect 21 0 23 0;
#X connect 22 0 24 0;
#X connect 23 0 22 0;
#X connect 25 0 16 0;
