#N canvas 1 76 1178 611 10;
#X obj -264 321 s tl_ctl;
#X obj -470 90 loadbang;
#X msg -683 125 10;
#X floatatom 117 123 5 0 0 0 - - -, f 5;
#X obj 12 145 * 0.1;
#X floatatom 117 165 5 0 0 0 - - -, f 5;
#X floatatom 180 166 5 0 0 0 - - -, f 5;
#X floatatom 246 124 5 0 0 0 - - -, f 5;
#X obj 355 162 * 0.1;
#X floatatom 246 166 5 0 0 0 - - -, f 5;
#X floatatom 295 119 5 0 0 0 - - -, f 5;
#X obj 360 149 * 0.1;
#X floatatom 295 161 5 0 0 0 - - -, f 5;
#X floatatom 110 186 5 0 0 0 - - -, f 5;
#X obj 27 251 * 0.1;
#X floatatom 104 230 5 0 0 0 - - -, f 5;
#X floatatom 177 188 5 0 0 0 - - -, f 5;
#X obj 91 281 * 0.1;
#X floatatom 163 232 5 0 0 0 - - -, f 5;
#X msg -495 129 0;
#X msg -396 131 0;
#X msg -254 120 0;
#X obj -562 117 r gco;
#X obj -725 128 r sat;
#X msg -306 124 0;
#X obj -404 320 list trim;
#X obj -66 194 * 6.28;
#X floatatom 184 126 5 0 0 0 - - -, f 5;
#X floatatom 238 189 5 0 0 0 - - -, f 5;
#X obj 263 294 * 0.1;
#X floatatom 238 231 5 0 0 0 - - -, f 5;
#X msg -196 133 0;
#X floatatom 299 190 5 0 0 0 - - -, f 5;
#X obj 346 316 * 0.1;
#X floatatom 299 232 5 0 0 0 - - -, f 5;
#X msg -135 134 0;
#X obj -404 298 moog_abuse_ctls \$1;
#X text 114 147 sat;
#X text 173 150 cutoff;
#X text 237 148 res0;
#X text 296 142 res1;
#X text 111 208 res2;
#X text 156 206 res3;
#X text 230 208 res4;
#X text 288 211 res5;
#X connect 1 0 2 0;
#X connect 1 0 19 0;
#X connect 1 0 20 0;
#X connect 1 0 24 0;
#X connect 1 0 21 0;
#X connect 1 0 31 0;
#X connect 1 0 35 0;
#X connect 2 0 3 0;
#X connect 3 0 4 0;
#X connect 4 0 5 0;
#X connect 5 0 36 0;
#X connect 6 0 36 1;
#X connect 7 0 8 0;
#X connect 8 0 9 0;
#X connect 9 0 36 2;
#X connect 10 0 11 0;
#X connect 11 0 12 0;
#X connect 12 0 36 3;
#X connect 13 0 14 0;
#X connect 14 0 15 0;
#X connect 15 0 36 4;
#X connect 16 0 17 0;
#X connect 17 0 18 0;
#X connect 18 0 36 5;
#X connect 19 0 7 0;
#X connect 20 0 10 0;
#X connect 21 0 16 0;
#X connect 22 0 27 0;
#X connect 23 0 3 0;
#X connect 24 0 13 0;
#X connect 25 0 0 0;
#X connect 26 0 6 0;
#X connect 27 0 26 0;
#X connect 28 0 29 0;
#X connect 29 0 30 0;
#X connect 30 0 36 6;
#X connect 31 0 28 0;
#X connect 32 0 33 0;
#X connect 33 0 34 0;
#X connect 34 0 36 7;
#X connect 35 0 32 0;
#X connect 36 0 25 0;
#X coords 0 -1 1 1 250 150 1 100 100;
