#N canvas 308 224 673 300 10;
#X obj -1413 133 f \$1;
#X obj -1443 174 pack s f f;
#X obj -1432 95 t b b f;
#X msg -1446 136 tl;
#X obj -1115 271 outlet;
#X obj -1308 138 f \$1;
#X obj -1343 190 pack s f f;
#X obj -1327 100 t b b f;
#X msg -1341 141 tl;
#X obj -1308 160 + 1;
#X obj -1340 49 inlet;
#X obj -1431 50 inlet;
#X obj -1222 133 f \$1;
#X obj -1257 185 pack s f f;
#X obj -1241 95 t b b f;
#X msg -1255 136 tl;
#X obj -1254 44 inlet;
#X obj -1132 138 f \$1;
#X obj -1167 190 pack s f f;
#X obj -1151 100 t b b f;
#X msg -1165 141 tl;
#X obj -1164 49 inlet;
#X obj -1034 138 f \$1;
#X obj -1053 100 t b b f;
#X msg -1067 141 tl;
#X obj -1066 49 inlet;
#X obj -941 139 f \$1;
#X obj -976 191 pack s f f;
#X obj -960 101 t b b f;
#X msg -974 142 tl;
#X obj -973 50 inlet;
#X obj -851 144 f \$1;
#X obj -886 196 pack s f f;
#X obj -870 106 t b b f;
#X msg -884 147 tl;
#X obj -883 55 inlet;
#X obj -753 144 f \$1;
#X obj -788 196 pack s f f;
#X obj -772 106 t b b f;
#X msg -786 147 tl;
#X obj -785 55 inlet;
#X obj -1222 155 + 2;
#X obj -1131 160 + 3;
#X obj -1034 160 + 4;
#X obj -941 161 + 5;
#X obj -851 166 + 6;
#X obj -753 166 + 7;
#X obj -1069 190 pack s f f;
#X connect 0 0 1 1;
#X connect 1 0 4 0;
#X connect 2 0 3 0;
#X connect 2 1 0 0;
#X connect 2 2 1 2;
#X connect 3 0 1 0;
#X connect 5 0 9 0;
#X connect 6 0 4 0;
#X connect 7 0 8 0;
#X connect 7 1 5 0;
#X connect 7 2 6 2;
#X connect 8 0 6 0;
#X connect 9 0 6 1;
#X connect 10 0 7 0;
#X connect 11 0 2 0;
#X connect 12 0 41 0;
#X connect 13 0 4 0;
#X connect 14 0 15 0;
#X connect 14 1 12 0;
#X connect 14 2 13 2;
#X connect 15 0 13 0;
#X connect 16 0 14 0;
#X connect 17 0 42 0;
#X connect 18 0 4 0;
#X connect 19 0 20 0;
#X connect 19 1 17 0;
#X connect 19 2 18 2;
#X connect 20 0 18 0;
#X connect 21 0 19 0;
#X connect 22 0 43 0;
#X connect 23 0 24 0;
#X connect 23 1 22 0;
#X connect 23 2 47 2;
#X connect 24 0 47 0;
#X connect 25 0 23 0;
#X connect 26 0 44 0;
#X connect 27 0 4 0;
#X connect 28 0 29 0;
#X connect 28 1 26 0;
#X connect 28 2 27 2;
#X connect 29 0 27 0;
#X connect 30 0 28 0;
#X connect 31 0 45 0;
#X connect 32 0 4 0;
#X connect 33 0 34 0;
#X connect 33 1 31 0;
#X connect 33 2 32 2;
#X connect 34 0 32 0;
#X connect 35 0 33 0;
#X connect 36 0 46 0;
#X connect 37 0 4 0;
#X connect 38 0 39 0;
#X connect 38 1 36 0;
#X connect 38 2 37 2;
#X connect 39 0 37 0;
#X connect 40 0 38 0;
#X connect 41 0 13 1;
#X connect 42 0 18 1;
#X connect 43 0 47 1;
#X connect 44 0 27 1;
#X connect 45 0 32 1;
#X connect 46 0 37 1;
#X connect 47 0 4 0;
