#N canvas 1 76 1351 688 10;
#X msg 5 18 \; pd dsp 1;
#X msg 2 60 \; pd dsp 0;
#X obj 75 335 bang~;
#X obj 43 372 snapshot~;
#X floatatom 38 409 5 0 0 0 - - -, f 5;
#X msg -16 216 tl_list_ctl;
#X floatatom 350 102 5 0 0 0 - - -, f 5;
#X floatatom 207 99 5 0 0 0 - - -, f 5;
#X obj 415 11 loadbang;
#X obj 156 389 dft_analysis;
#X obj 164 338 dac~;
#X msg 207 66 440;
#X obj 84 233 timelab~ /home/dmedine/programming/c_code/timelab-0.10/modules/moog.tl
;
#X msg 207 146 tl 2 \$1;
#X msg 350 161 tl 3 \$1;
#X msg 350 78 0;
#X obj 350 120 * 0.1;
#X obj 27 156 noise~;
#X obj 207 118 * 6.28;
#X obj 595 283 -~ 1;
#X obj 594 314 *~ -1000;
#X floatatom 594 197 5 0 0 0 - - -, f 5;
#X obj 505 331 snapshot~;
#X obj 505 300 bang~;
#X obj 594 253 phasor~;
#X floatatom 696 323 5 0 0 0 - - -, f 5;
#X obj 696 298 snapshot~;
#X obj 694 213 osc~;
#X floatatom 694 170 5 0 0 0 - - -, f 5;
#X obj 694 235 +~ 1;
#X obj 695 266 *~ -600;
#X obj 505 375 spigot;
#X obj 545 353 tgl 15 0 empty empty empty 17 7 0 10 -262144 -1 -1 1
1;
#X obj 85 183 *~;
#X obj 104 155 line~;
#X obj 505 404 s co;
#X obj 174 27 r co;
#X obj 166 291 hip~ 40;
#X obj 166 317 *~ 0.5;
#X floatatom 741 148 5 0 0 0 - - -, f 5;
#X obj 741 167 * -10;
#X floatatom 512 77 5 0 0 0 - - -, f 5;
#X floatatom 574 118 5 0 0 0 - - -, f 5;
#X obj 512 96 * 0.1;
#X msg 513 152 tl 4 \$1;
#X msg 512 51 10;
#X floatatom 392 144 5 0 0 0 - - -, f 5;
#X obj 697 358 spigot;
#X obj 737 336 tgl 15 0 empty empty empty 17 7 0 10 -262144 -1 -1 1
1;
#X floatatom 913 305 5 0 0 0 - - -, f 5;
#X obj 913 280 snapshot~;
#X obj 911 195 osc~;
#X floatatom 911 152 5 0 0 0 - - -, f 5;
#X obj 911 217 +~ 1;
#X obj 914 340 spigot;
#X obj 954 318 tgl 15 0 empty empty empty 17 7 0 10 -262144 -1 -1 1
1;
#X floatatom 962 85 5 0 0 0 - - -, f 5;
#X obj 780 259 bang~;
#X obj 1015 241 bang~;
#X obj 912 248 *~ 600;
#X obj 958 149 * 10;
#X msg 104 108 \$1 40;
#X obj 98 68 tgl 15 0 empty empty empty 17 7 0 10 -262144 -1 -1 0 1
;
#X text 626 393 analog synth style controls for fc;
#X obj 119 204 r tl_ctl;
#X obj 207 168 s tl_ctl;
#X obj 350 183 s tl_ctl;
#X obj 513 174 s tl_ctl;
#X text 268 137 g;
#X text 255 99 fc;
#X text 256 119 2pi;
#X text 436 145 r;
#X text 564 85 saturation parameter (thanks to Miller Puckette);
#X obj 594 227 * 0.1;
#X obj 694 189 * 0.1;
#X obj 912 171 * 0.1;
#X obj 1177 140 -~ 1;
#X floatatom 1176 54 5 0 0 0 - - -, f 5;
#X obj 1087 188 snapshot~;
#X obj 1087 157 bang~;
#X obj 1176 110 phasor~;
#X obj 1087 232 spigot;
#X obj 1127 210 tgl 15 0 empty empty empty 17 7 0 10 -262144 -1 -1
1 1;
#X obj 1176 84 * 0.01;
#X floatatom 1245 116 5 0 0 0 - - -, f 5;
#X obj 1245 135 * -1;
#X obj 1176 170 *~ -10;
#X connect 2 0 3 0;
#X connect 2 0 9 1;
#X connect 3 0 4 0;
#X connect 5 0 12 0;
#X connect 6 0 16 0;
#X connect 7 0 18 0;
#X connect 8 0 11 0;
#X connect 8 0 15 0;
#X connect 8 0 45 0;
#X connect 11 0 7 0;
#X connect 12 0 3 0;
#X connect 12 0 9 0;
#X connect 12 0 37 0;
#X connect 13 0 65 0;
#X connect 14 0 66 0;
#X connect 15 0 6 0;
#X connect 16 0 14 0;
#X connect 16 0 46 0;
#X connect 17 0 33 0;
#X connect 18 0 13 0;
#X connect 19 0 20 0;
#X connect 20 0 22 0;
#X connect 21 0 73 0;
#X connect 22 0 31 0;
#X connect 23 0 22 0;
#X connect 24 0 19 0;
#X connect 25 0 47 0;
#X connect 26 0 25 0;
#X connect 27 0 29 0;
#X connect 28 0 74 0;
#X connect 29 0 30 0;
#X connect 30 0 26 0;
#X connect 31 0 35 0;
#X connect 32 0 31 1;
#X connect 33 0 12 0;
#X connect 34 0 33 1;
#X connect 36 0 18 0;
#X connect 37 0 38 0;
#X connect 38 0 10 0;
#X connect 39 0 40 0;
#X connect 40 0 30 1;
#X connect 41 0 43 0;
#X connect 43 0 44 0;
#X connect 43 0 42 0;
#X connect 44 0 67 0;
#X connect 45 0 41 0;
#X connect 47 0 20 1;
#X connect 48 0 47 1;
#X connect 49 0 54 0;
#X connect 50 0 49 0;
#X connect 51 0 53 0;
#X connect 52 0 75 0;
#X connect 53 0 59 0;
#X connect 54 0 39 0;
#X connect 55 0 54 1;
#X connect 56 0 60 0;
#X connect 57 0 26 0;
#X connect 58 0 50 0;
#X connect 59 0 50 0;
#X connect 60 0 59 1;
#X connect 61 0 34 0;
#X connect 62 0 61 0;
#X connect 64 0 12 0;
#X connect 73 0 24 0;
#X connect 74 0 27 0;
#X connect 75 0 51 0;
#X connect 76 0 86 0;
#X connect 77 0 83 0;
#X connect 78 0 81 0;
#X connect 79 0 78 0;
#X connect 80 0 76 0;
#X connect 81 0 56 0;
#X connect 82 0 81 1;
#X connect 83 0 80 0;
#X connect 84 0 85 0;
#X connect 85 0 86 1;
#X connect 86 0 78 0;
