#N canvas 10 83 1351 680 10;
#X msg 5 18 \; pd dsp 1;
#X msg 2 60 \; pd dsp 0;
#X obj 75 335 bang~;
#X obj 43 372 snapshot~;
#X floatatom 38 409 5 0 0 0 - - -, f 5;
#X msg -16 194 tl_list_ctl;
#X floatatom 350 102 5 0 0 0 - - -, f 5;
#X floatatom 207 99 5 0 0 0 - - -, f 5;
#X obj 415 11 loadbang;
#X obj 126 436 dft_analysis;
#X obj 164 338 dac~;
#X msg 207 146 tl 2 \$1;
#X msg 350 161 tl 3 \$1;
#X obj 350 120 * 0.1;
#X obj 207 118 * 6.28;
#X obj 174 27 r co;
#X obj 166 291 hip~ 40;
#X floatatom 512 77 5 0 0 0 - - -, f 5;
#X floatatom 574 118 5 0 0 0 - - -, f 5;
#X obj 512 96 * 0.1;
#X msg 513 152 tl 4 \$1;
#X msg 512 51 10;
#X floatatom 392 144 5 0 0 0 - - -, f 5;
#X obj 207 168 s tl_ctl;
#X obj 350 183 s tl_ctl;
#X obj 513 174 s tl_ctl;
#X text 268 137 g;
#X text 255 99 fc;
#X text 256 119 2pi;
#X text 436 145 r;
#X obj 166 317 *~ 0.707;
#X obj 117 401 *~;
#X obj 228 343 loadbang;
#X msg 228 365 1;
#X floatatom 222 391 5 0 0 0 - - -, f 5;
#X obj 89 263 timelab~ /home/dmedine/timelab-0.10/modules/moog.tl;
#X obj 1100 425 float;
#X obj 1161 426 + 1;
#X floatatom 1100 447 5 0 0 0 - - -, f 5;
#X obj 1085 386 until;
#X obj 1091 361 t f b;
#X obj 1062 537 tabwrite \$0-impulse;
#X obj 1062 574 tabread \$0-impulse;
#X floatatom 1062 596 5 0 0 0 - - -, f 5;
#X floatatom 916 561 5 0 0 0 - - -, f 5;
#X msg 1134 385 1;
#X floatatom 1049 509 5 0 0 0 - - -, f 5;
#X floatatom 1043 449 5 0 0 0 - - -, f 5;
#X obj 205 222 tabplay~ \$0-impulse;
#X obj 1100 466 == 1;
#X msg 264 194 0;
#X obj 899 488 table \$0-impulse 44100;
#X msg 1086 337 44100;
#X obj 584 331 float;
#X floatatom 582 362 5 0 0 0 - - -, f 5;
#X msg 618 291 0;
#X msg 207 66 0;
#X msg 350 78 10;
#X obj 661 394 spigot;
#X msg 719 398 0;
#X obj 753 373 loadbang;
#X obj 882 157 writesf~ 1;
#X obj 1000 182 r start_rec;
#X obj 89 285 s~ rec;
#X obj 880 136 r~ rec;
#X obj 599 242 bng 15 250 50 0 empty empty empty 17 7 0 10 -262144
-1 -1;
#X msg 697 293 1;
#X obj 599 262 t b b b;
#X floatatom 661 416 5 0 0 0 - - -, f 5;
#X msg 485 428 0;
#X obj 519 403 loadbang;
#X obj 459 379 r stop_loop;
#X obj 565 207 r start_loop;
#X obj 530 484 bng 15 250 50 0 empty empty empty 17 7 0 10 -262144
-1 -1;
#X obj 626 503 bng 15 250 50 0 empty empty empty 17 7 0 10 -262144
-1 -1;
#X obj 510 576 s start_loop;
#X obj 668 590 s stop_loop;
#X obj 654 497 s co_f;
#X obj 251 67 r co_f;
#X msg 661 435 \$1 40;
#X obj 661 457 line;
#X obj 83 156 r stop_loop;
#X msg 200 195 stop;
#X obj 306 199 r start_loop;
#X obj 530 504 t b b;
#X obj 554 550 s start_rec;
#X obj 925 62 r stop_rec;
#X msg 925 84 stop;
#X obj 1000 204 t b b;
#X msg 979 145 start;
#X obj 1084 302 loadbang;
#X obj 767 575 s stop_rec;
#X obj 728 515 bng 15 250 50 0 empty empty empty 17 7 0 10 -262144
-1 -1;
#X floatatom 749 429 5 0 0 0 - - -, f 5;
#X obj 728 535 t b b;
#X obj 125 224 noise~;
#X obj 101 206 r tl_ctl;
#X obj 488 309 delay 1000;
#X obj 442 351 bng 15 250 50 0 empty empty empty 17 7 0 10 -262144
-1 -1;
#X obj 487 280 bng 15 250 50 0 empty empty empty 17 7 0 10 -262144
-1 -1;
#X obj 645 332 + 1000;
#X obj 723 483 sel 6000;
#X obj 579 523 line;
#X msg 578 483 50;
#X obj 477 528 del 5000;
#X msg 551 459 10000 5000;
#X msg 801 192 open ./moog_r4.wav;
#X connect 2 0 3 0;
#X connect 2 0 9 1;
#X connect 3 0 4 0;
#X connect 5 0 35 0;
#X connect 6 0 13 0;
#X connect 7 0 14 0;
#X connect 8 0 56 0;
#X connect 8 0 57 0;
#X connect 8 0 21 0;
#X connect 11 0 23 0;
#X connect 12 0 24 0;
#X connect 13 0 12 0;
#X connect 13 0 22 0;
#X connect 14 0 11 0;
#X connect 15 0 14 0;
#X connect 16 0 30 0;
#X connect 17 0 19 0;
#X connect 19 0 20 0;
#X connect 19 0 18 0;
#X connect 20 0 25 0;
#X connect 21 0 17 0;
#X connect 30 0 10 0;
#X connect 31 0 9 0;
#X connect 32 0 33 0;
#X connect 33 0 34 0;
#X connect 34 0 31 1;
#X connect 35 0 3 0;
#X connect 35 0 31 0;
#X connect 35 0 63 0;
#X connect 36 0 37 0;
#X connect 36 0 38 0;
#X connect 37 0 36 1;
#X connect 38 0 41 1;
#X connect 38 0 49 0;
#X connect 39 0 36 0;
#X connect 40 0 39 0;
#X connect 40 1 45 0;
#X connect 42 0 43 0;
#X connect 44 0 42 0;
#X connect 45 0 36 1;
#X connect 47 0 49 0;
#X connect 49 0 41 0;
#X connect 49 0 46 0;
#X connect 50 0 48 0;
#X connect 52 0 40 0;
#X connect 53 0 54 0;
#X connect 53 0 100 0;
#X connect 54 0 58 0;
#X connect 55 0 53 1;
#X connect 56 0 7 0;
#X connect 57 0 6 0;
#X connect 58 0 68 0;
#X connect 59 0 58 1;
#X connect 60 0 59 0;
#X connect 62 0 88 0;
#X connect 64 0 61 0;
#X connect 65 0 67 0;
#X connect 66 0 58 1;
#X connect 67 0 53 0;
#X connect 67 1 66 0;
#X connect 67 2 55 0;
#X connect 68 0 79 0;
#X connect 68 0 101 0;
#X connect 70 0 69 0;
#X connect 71 0 69 0;
#X connect 71 0 59 0;
#X connect 72 0 65 0;
#X connect 73 0 84 0;
#X connect 78 0 7 0;
#X connect 79 0 80 0;
#X connect 81 0 82 0;
#X connect 82 0 48 0;
#X connect 84 0 75 0;
#X connect 84 0 104 0;
#X connect 84 0 105 0;
#X connect 84 1 85 0;
#X connect 86 0 87 0;
#X connect 87 0 61 0;
#X connect 88 0 89 0;
#X connect 88 1 106 0;
#X connect 89 0 61 0;
#X connect 90 0 52 0;
#X connect 92 0 94 0;
#X connect 93 0 101 0;
#X connect 94 0 76 0;
#X connect 94 0 103 0;
#X connect 94 1 91 0;
#X connect 95 0 35 0;
#X connect 96 0 35 0;
#X connect 97 0 98 0;
#X connect 98 0 53 0;
#X connect 99 0 97 0;
#X connect 100 0 53 1;
#X connect 101 0 92 0;
#X connect 102 0 77 0;
#X connect 103 0 102 0;
#X connect 104 0 92 0;
#X connect 105 0 102 0;
#X connect 106 0 61 0;
