#N canvas 238 76 735 581 10;
#X msg 388 32 \; pd dsp 1;
#X msg 491 33 \; pd dsp 0;
#X obj 75 335 bang~;
#X obj 69 358 snapshot~;
#X floatatom 68 406 5 0 0 0 - - -, f 5;
#X obj 504 304 bang~;
#X obj 498 327 snapshot~;
#X floatatom 497 375 5 0 0 0 - - -, f 5;
#X msg 167 114 tl_list_ctl;
#X floatatom 398 110 5 0 0 0 - - -, f 5;
#X floatatom 308 118 5 0 0 0 - - -, f 5;
#X obj 247 26 loadbang;
#X floatatom 460 151 5 0 0 0 - - -, f 5;
#X obj 156 389 dft_analysis;
#X obj 310 315 dac~;
#X obj 229 315 *~ 0.2;
#X msg 313 83 440;
#X obj 84 233 timelab~ /home/dmedine/programming/c_code/timelab-0.10/modules/moog.tl
;
#X msg 261 174 tl 2 \$1;
#X msg 385 165 tl 3 \$1;
#X msg 406 85 0;
#X obj 398 129 * 0.1;
#X obj 93 133 noise~;
#X obj 308 137 * 6.28;
#X obj 596 99 phasor~;
#X obj 596 121 -~ 1;
#X obj 596 144 *~ -1000;
#X floatatom 604 30 5 0 0 0 - - -, f 5;
#X obj 602 49 * 0.001;
#X obj 596 166 snapshot~;
#X obj 541 129 bang~;
#X connect 2 0 3 0;
#X connect 2 0 13 1;
#X connect 3 0 4 0;
#X connect 5 0 6 0;
#X connect 6 0 7 0;
#X connect 8 0 17 0;
#X connect 9 0 21 0;
#X connect 10 0 23 0;
#X connect 11 0 16 0;
#X connect 11 0 20 0;
#X connect 15 0 14 0;
#X connect 16 0 10 0;
#X connect 17 0 3 0;
#X connect 17 0 13 0;
#X connect 17 0 15 0;
#X connect 18 0 17 0;
#X connect 19 0 17 0;
#X connect 20 0 9 0;
#X connect 21 0 19 0;
#X connect 21 0 12 0;
#X connect 22 0 17 0;
#X connect 23 0 18 0;
#X connect 24 0 25 0;
#X connect 25 0 26 0;
#X connect 26 0 29 0;
#X connect 27 0 28 0;
#X connect 28 0 24 0;
#X connect 29 0 10 0;
#X connect 30 0 29 0;
