#N canvas 421 93 902 660 10;
#X msg 36 15 \; pd dsp 1;
#X msg 33 57 \; pd dsp 0;
#X obj 37 394 bang~;
#X obj 16 456 snapshot~;
#X floatatom 16 487 5 0 0 0 - - -, f 5;
#X msg 32 328 tl_list_ctl;
#X floatatom 101 97 5 0 0 0 - - -, f 5;
#X msg 99 151 tl 2 \$1;
#X obj 24 371 r tl_ctl;
#X obj 99 173 s tl_ctl;
#X obj 455 421 bang~;
#X obj 371 439 snapshot~;
#X floatatom 371 470 5 0 0 0 - - -, f 5;
#X obj 500 18 loadbang;
#X floatatom 181 99 5 0 0 0 - - -, f 5;
#X obj 179 141 s tl_ctl;
#X floatatom 538 115 5 0 0 0 - - -, f 5;
#X obj 536 157 s tl_ctl;
#X floatatom 618 117 5 0 0 0 - - -, f 5;
#X obj 616 159 s tl_ctl;
#X floatatom 246 179 5 0 0 0 - - -, f 5;
#X obj 243 243 s tl_ctl;
#X floatatom 323 181 5 0 0 0 - - -, f 5;
#X obj 323 245 s tl_ctl;
#X obj 414 243 s tl_ctl;
#X obj 413 190 bng 15 250 50 0 empty empty empty 17 7 0 10 -262144
-1 -1;
#X msg 179 119 tl 3 \$1;
#X obj 243 198 * 0.01;
#X obj 323 200 * 0.01;
#X msg 531 42 1;
#X msg 159 475 start;
#X msg 215 477 stop;
#X obj 500 250 s rec;
#X obj 514 194 bng 15 250 50 0 empty empty empty 17 7 0 10 -262144
-1 -1;
#X obj 448 176 r rec;
#X obj 212 428 r rec;
#X obj 56 520 writesf~ 1;
#X obj 81 543 r start_rec;
#X obj 316 560 r start_rec;
#X obj 514 214 t b b;
#X obj 553 251 s start_rec;
#X obj 305 532 writesf~ 1;
#X obj 118 40 loadbang;
#X obj 255 429 delwrite~ fb1;
#X obj 112 418 delwrite~ fb0;
#X obj 543 350 dft_analysis;
#X obj 104 445 s~ dft_anal;
#X obj 542 301 r~ dft_anal;
#X obj 212 450 del 20000;
#X obj 836 315 bang~;
#X floatatom 190 286 5 0 0 0 - - -, f 5;
#X obj 190 305 sig~;
#X obj 192 333 vd~ fb0;
#X floatatom 68 216 5 0 0 0 - - -, f 5;
#X obj 192 355 *~;
#X obj 68 292 *~;
#X floatatom 272 274 5 0 0 0 - - -, f 5;
#X obj 272 293 * 0.01;
#X msg 272 315 \$1 40;
#X obj 272 337 line~;
#X floatatom 134 231 5 0 0 0 - - -, f 5;
#X obj 134 250 * 0.01;
#X msg 134 272 \$1 40;
#X obj 134 294 line~;
#X obj 108 388 timelab~ /home/dmedine/timelab-0.10/modules/nl_filt.tl
;
#X msg 317 596 open ./nl_filt_vel.wav;
#X msg 71 583 open ./nl_filt_pos.wav;
#X msg 183 72 0;
#X msg 101 71 440;
#X obj 336 324 *~;
#X floatatom 437 272 5 0 0 0 - - -, f 5;
#X obj 437 291 * 0.01;
#X msg 437 313 \$1 40;
#X obj 437 335 line~;
#X obj 336 302 noise~;
#X obj 240 566 dac~;
#X obj 200 543 *~ 0.2;
#X obj 190 512 clip~ -0.8 0.8;
#X msg 243 221 tl 8 \$1;
#X msg 323 223 tl 9 \$1;
#X msg 414 221 tl 10 1;
#X floatatom 187 179 5 0 0 0 - - -, f 5;
#X obj 184 243 s tl_ctl;
#X obj 184 198 * 0.01;
#X msg 184 221 tl 7 \$1;
#X msg 536 135 tl 5 \$1;
#X msg 616 137 tl 6 \$1;
#X floatatom 295 101 5 0 0 0 - - -, f 5;
#X obj 293 143 s tl_ctl;
#X msg 297 74 0;
#X msg 293 121 tl 4 \$1;
#X obj 473 449 bang~;
#X obj 427 469 snapshot~;
#X floatatom 427 500 5 0 0 0 - - -, f 5;
#X floatatom 660 16 5 0 0 0 - - -, f 5;
#X obj 662 37 osc~;
#X obj 672 92 snapshot~;
#X obj 801 73 bang~;
#X obj 713 134 *;
#X floatatom 724 122 5 0 0 0 - - -, f 5;
#X obj 68 270 phasor~;
#X connect 2 0 3 0;
#X connect 3 0 4 0;
#X connect 5 0 64 0;
#X connect 6 0 7 0;
#X connect 7 0 9 0;
#X connect 8 0 64 0;
#X connect 10 0 11 0;
#X connect 11 0 12 0;
#X connect 13 0 29 0;
#X connect 14 0 26 0;
#X connect 16 0 85 0;
#X connect 18 0 86 0;
#X connect 20 0 27 0;
#X connect 22 0 28 0;
#X connect 25 0 80 0;
#X connect 26 0 15 0;
#X connect 27 0 78 0;
#X connect 28 0 79 0;
#X connect 29 0 16 0;
#X connect 29 0 18 0;
#X connect 30 0 36 0;
#X connect 30 0 41 0;
#X connect 31 0 36 0;
#X connect 31 0 41 0;
#X connect 33 0 39 0;
#X connect 34 0 25 0;
#X connect 35 0 30 0;
#X connect 35 0 48 0;
#X connect 37 0 66 0;
#X connect 38 0 65 0;
#X connect 39 0 32 0;
#X connect 39 1 40 0;
#X connect 42 0 68 0;
#X connect 42 0 67 0;
#X connect 42 0 89 0;
#X connect 47 0 45 0;
#X connect 48 0 31 0;
#X connect 49 0 45 1;
#X connect 50 0 51 0;
#X connect 51 0 52 0;
#X connect 52 0 54 0;
#X connect 53 0 100 0;
#X connect 54 0 64 0;
#X connect 55 0 64 0;
#X connect 56 0 57 0;
#X connect 57 0 58 0;
#X connect 58 0 59 0;
#X connect 59 0 54 1;
#X connect 60 0 61 0;
#X connect 61 0 62 0;
#X connect 62 0 63 0;
#X connect 63 0 55 1;
#X connect 64 0 46 0;
#X connect 64 0 44 0;
#X connect 64 0 3 0;
#X connect 64 0 77 0;
#X connect 64 1 11 0;
#X connect 64 2 92 0;
#X connect 65 0 41 0;
#X connect 66 0 36 0;
#X connect 67 0 14 0;
#X connect 68 0 6 0;
#X connect 69 0 64 0;
#X connect 70 0 71 0;
#X connect 71 0 72 0;
#X connect 72 0 73 0;
#X connect 73 0 69 1;
#X connect 74 0 69 0;
#X connect 76 0 75 0;
#X connect 77 0 76 0;
#X connect 78 0 21 0;
#X connect 79 0 23 0;
#X connect 80 0 24 0;
#X connect 81 0 83 0;
#X connect 83 0 84 0;
#X connect 84 0 82 0;
#X connect 85 0 17 0;
#X connect 86 0 19 0;
#X connect 87 0 90 0;
#X connect 89 0 87 0;
#X connect 90 0 88 0;
#X connect 91 0 92 0;
#X connect 92 0 93 0;
#X connect 94 0 95 0;
#X connect 95 0 96 0;
#X connect 96 0 98 0;
#X connect 97 0 96 0;
#X connect 99 0 98 1;
#X connect 100 0 55 0;
