#N canvas 239 92 735 581 10;
#X obj 84 233 timelab~ /home/dmedine/programming/c_code/timelab-0.10/modules/tri_sqr.tl
;
#X msg 388 32 \; pd dsp 1;
#X msg 491 33 \; pd dsp 0;
#X obj 75 335 bang~;
#X obj 69 358 snapshot~;
#X floatatom 68 406 5 0 0 0 - - -, f 5;
#X obj 504 304 bang~;
#X obj 498 327 snapshot~;
#X floatatom 497 375 5 0 0 0 - - -, f 5;
#X msg 167 114 tl_list_ctl;
#X floatatom 398 110 5 0 0 0 - - -, f 5;
#X floatatom 308 118 5 0 0 0 - - -, f 5;
#X msg 296 158 tl 1 \$1;
#X msg 385 165 tl 2 \$1;
#X obj 398 129 * 0.01;
#X msg 406 85 50;
#X obj 247 26 loadbang;
#X floatatom 460 151 5 0 0 0 - - -, f 5;
#X floatatom 524 119 5 0 0 0 - - -, f 5;
#X msg 532 94 50;
#X msg 511 174 tl 3 \$1;
#X obj 156 389 dft_analysis;
#X msg 626 193 tl 4 1;
#X obj 310 315 dac~;
#X obj 229 315 *~ 0.2;
#X msg 313 83 440;
#X connect 0 0 4 0;
#X connect 0 0 21 0;
#X connect 0 0 24 0;
#X connect 0 1 7 0;
#X connect 3 0 4 0;
#X connect 3 0 21 1;
#X connect 4 0 5 0;
#X connect 6 0 7 0;
#X connect 7 0 8 0;
#X connect 9 0 0 0;
#X connect 10 0 14 0;
#X connect 11 0 12 0;
#X connect 12 0 0 0;
#X connect 13 0 0 0;
#X connect 14 0 13 0;
#X connect 14 0 17 0;
#X connect 15 0 10 0;
#X connect 16 0 25 0;
#X connect 16 0 15 0;
#X connect 16 0 19 0;
#X connect 18 0 20 0;
#X connect 19 0 18 0;
#X connect 20 0 0 0;
#X connect 22 0 0 0;
#X connect 24 0 23 0;
#X connect 25 0 11 0;
